<svg width="359" height="359" viewBox="0 0 359 359" fill="none" xmlns="http://www.w3.org/2000/svg">
<path d="M293.841 194.772C290.711 178.258 280.594 166.195 267.426 156.495C258.028 149.567 250.395 140.505 243.847 130.855C234.7 117.364 227.111 100.484 212.32 92.1409C191.282 80.2796 171.056 96.413 154.004 107.793C145.058 113.767 135.515 119.999 124.688 121.723C109.251 124.192 93.577 117.415 78.2692 121.493C75.2964 121.627 72.3736 122.306 69.646 123.496C69.646 123.496 50.26 129.958 44.516 162.986C38.772 196.014 43.798 245.556 71.082 274.276C98.366 302.996 119.906 306.586 134.266 307.304C134.661 307.304 135.049 307.304 135.436 307.304C144.964 308.74 156.258 308.022 169.182 304.432C210.74 292.887 208.428 266.335 245.369 260.562C282.31 254.789 300.189 228.245 293.841 194.772Z" fill="#F36563"/>
<path opacity="0.7" d="M293.841 194.772C290.711 178.258 280.594 166.195 267.426 156.495C258.028 149.567 250.395 140.505 243.847 130.855C234.7 117.364 227.111 100.484 212.32 92.1409C191.282 80.2796 171.056 96.413 154.004 107.793C145.058 113.767 135.515 119.999 124.688 121.723C109.251 124.192 93.577 117.415 78.2692 121.493C75.2964 121.627 72.3736 122.306 69.646 123.496C69.646 123.496 50.26 129.958 44.516 162.986C38.772 196.014 43.798 245.556 71.082 274.276C98.366 302.996 119.906 306.586 134.266 307.304C134.661 307.304 135.049 307.304 135.436 307.304C144.964 308.74 156.258 308.022 169.182 304.432C210.74 292.887 208.428 266.335 245.369 260.562C282.31 254.789 300.189 228.245 293.841 194.772Z" fill="white"/>
<path d="M159.482 65.7975C159.482 65.7975 162.771 63.1984 163.618 61.5326C164.336 60.0966 164.853 58.1006 164.113 56.5928C163.954 56.2291 163.719 55.9033 163.425 55.6365C163.131 55.3698 162.783 55.1682 162.406 55.0448C162.028 54.9215 161.629 54.8792 161.234 54.9208C160.839 54.9623 160.458 55.0868 160.114 55.286C158.082 56.5497 157.867 60.8433 158.384 62.9112C158.427 63.1122 159.446 65.8262 159.482 65.7975Z" fill="#F36563"/>
<path d="M129.061 87.4452C129.197 87.5745 131.545 89.2761 131.552 89.233C131.559 89.19 132.866 85.2481 132.651 83.3957C132.464 81.8161 131.789 79.8488 130.339 79.0015C130.004 78.7882 129.629 78.6479 129.237 78.5897C128.845 78.5316 128.445 78.5569 128.063 78.664C127.682 78.7711 127.327 78.9575 127.023 79.2112C126.718 79.4649 126.471 79.78 126.296 80.136C125.298 82.3043 127.488 86.0092 129.061 87.4452Z" fill="#F36563"/>
<path d="M198.01 69.7322C198.01 69.7322 185.962 82.1679 186.027 97.4398C186.091 112.712 198.233 125.047 198.233 125.047C198.233 125.047 210.281 112.611 210.216 97.3393C210.151 82.0674 198.01 69.7322 198.01 69.7322Z" fill="#F36563"/>
<path d="M180.835 106.594C180.991 106.42 181.135 106.235 181.266 106.041C182.142 104.713 182.889 102.782 182.329 101.195C182.21 100.817 182.013 100.468 181.75 100.171C181.487 99.8736 181.165 99.6354 180.803 99.4715C180.442 99.3075 180.051 99.2215 179.654 99.2191C179.258 99.2167 178.865 99.2979 178.502 99.4574C176.865 100.233 176.068 102.854 175.896 105C175.242 104.85 174.653 104.735 174.144 104.648C173.928 104.167 173.713 103.672 173.49 103.212C173.268 102.753 173.088 102.193 172.88 101.676C172.593 100.915 172.334 100.111 172.069 99.3138C173.024 98.883 175.802 97.5906 176.836 96.4418C177.87 95.293 178.933 93.4621 178.617 91.8107C178.557 91.4188 178.415 91.044 178.2 90.7107C177.985 90.3775 177.703 90.0932 177.371 89.8764C177.039 89.6596 176.665 89.5152 176.273 89.4526C175.882 89.39 175.482 89.4106 175.099 89.5131C172.808 90.2311 171.466 94.2806 171.415 96.413C171.415 96.4848 171.415 96.9372 171.501 97.4685C171.272 96.6787 171.035 95.8961 170.834 95.0919C170.245 92.8015 169.714 90.4536 169.175 88.1058C169.067 87.6104 168.945 87.1293 168.831 86.6698C169.635 86.318 172.65 84.9394 173.734 83.7403C174.819 82.5413 175.838 80.7606 175.522 79.1092C175.461 78.7171 175.318 78.3422 175.103 78.0089C174.887 77.6756 174.604 77.3914 174.272 77.1747C173.939 76.958 173.565 76.8137 173.173 76.7511C172.781 76.6886 172.38 76.7092 171.997 76.8116C169.714 77.5296 168.371 81.5792 168.321 83.7116C168.321 83.7834 168.364 84.3219 168.421 84.925C168.105 83.6542 167.782 82.3905 167.423 81.1412C166.814 79.0012 166.06 76.9046 165.169 74.8659C165.456 74.7438 169.024 73.2001 170.231 71.8646C171.3 70.6871 172.327 68.8849 172.011 67.2335C171.951 66.8417 171.809 66.4669 171.594 66.1336C171.38 65.8003 171.097 65.516 170.765 65.2993C170.433 65.0825 170.059 64.9381 169.668 64.8755C169.276 64.8129 168.876 64.8335 168.493 64.9359C166.21 65.6539 164.86 69.7034 164.817 71.8359C164.817 71.9867 164.989 73.9325 165.075 74.6289V74.5571C164.155 72.5737 163.057 70.6776 161.794 68.8921C160.688 67.2893 159.489 65.7525 158.204 64.2897C157.019 62.9255 155.849 61.7408 154.808 60.6997C154.234 60.1469 153.702 59.6443 153.207 59.1847H153.257C153.3 59.1847 152.137 56.521 152.044 56.363C150.981 54.5177 147.829 51.5883 145.496 52.055C145.111 52.1509 144.751 52.3265 144.438 52.5705C144.126 52.8145 143.868 53.1215 143.682 53.4715C143.496 53.8215 143.385 54.2067 143.358 54.6022C143.33 54.9976 143.385 55.3945 143.521 55.7671C144.045 57.3682 145.811 58.4452 147.319 58.9622C148.827 59.4791 152.223 59.2422 153.063 59.1632C153.573 59.6514 154.112 60.1828 154.693 60.7715C155.713 61.827 156.847 63.0332 158.01 64.419C158.312 64.7851 158.628 65.2016 158.944 65.5893C158.276 65.0364 157.357 64.2969 157.256 64.2323C155.461 63.0907 151.311 61.9419 149.48 63.464C149.181 63.7245 148.941 64.0452 148.774 64.4052C148.608 64.7652 148.519 65.1563 148.514 65.5529C148.51 65.9495 148.589 66.3426 148.747 66.7065C148.904 67.0704 149.137 67.3968 149.43 67.6643C150.629 68.849 152.704 68.9854 154.277 68.7557C155.849 68.5259 158.85 66.6807 159.489 66.2714C160.171 67.1474 160.854 68.0664 161.507 69.0644C162.708 70.8577 163.748 72.7534 164.616 74.7294C164.666 74.8443 164.702 74.9664 164.752 75.0813C164.472 74.751 162.792 73.0637 162.663 72.9273C161.004 71.5918 157.012 69.9906 155.016 71.3046C154.691 71.5315 154.417 71.8243 154.213 72.1641C154.008 72.5039 153.878 72.8829 153.83 73.2765C153.782 73.6701 153.817 74.0695 153.934 74.4485C154.05 74.8275 154.245 75.1776 154.506 75.4762C155.576 76.7829 157.615 77.1491 159.202 77.0917C161.04 77.027 164.645 75.2033 164.781 75.1387C165.595 77.1307 166.276 79.1743 166.82 81.2561C167.229 82.7926 167.588 84.3722 167.926 85.9518C167.552 85.5353 165.994 83.9629 165.865 83.8624C164.207 82.5269 160.215 80.9258 158.218 82.2397C157.893 82.4666 157.62 82.7595 157.415 83.0992C157.211 83.439 157.08 83.8181 157.032 84.2117C156.984 84.6053 157.019 85.0046 157.136 85.3836C157.253 85.7626 157.448 86.1128 157.709 86.4113C158.779 87.7181 160.818 88.0842 162.404 88.0268C164.199 87.9622 167.66 86.2318 167.955 86.0882C168.113 86.8062 168.263 87.5242 168.414 88.2422C168.902 90.5972 169.383 92.9666 169.922 95.2858C170.109 96.0899 170.324 96.8726 170.539 97.6624C169.951 97.0521 168.866 95.9607 168.766 95.8745C167.107 94.5462 163.108 92.9451 161.119 94.2519C160.794 94.4787 160.52 94.7716 160.316 95.1114C160.111 95.4512 159.981 95.8302 159.933 96.2238C159.885 96.6174 159.92 97.0167 160.037 97.3957C160.153 97.7747 160.348 98.1249 160.609 98.4234C161.672 99.7302 163.718 100.104 165.305 100.039C166.892 99.9743 169.85 98.6029 170.676 98.1865C171.035 99.4933 171.394 100.786 171.868 102.035C172.069 102.573 172.241 103.134 172.464 103.636L172.801 104.433L172.342 104.39C172.342 104.39 172.342 105.108 172.377 106.35C170.626 105.101 168.069 104.024 166.454 104.785C166.099 104.96 165.784 105.208 165.531 105.513C165.278 105.817 165.092 106.172 164.985 106.553C164.878 106.934 164.853 107.334 164.91 107.726C164.968 108.118 165.107 108.493 165.319 108.827C165.427 109.007 165.549 109.178 165.686 109.337C166.004 111.178 166.785 112.907 167.955 114.363C168.041 114.471 169.233 115.569 169.857 116.115C169.254 115.792 168.658 115.469 168.041 115.124C167.143 114.622 166.217 114.069 165.312 113.537L163.919 112.654C163.446 112.36 163.022 112.03 162.562 111.714C161.902 111.233 161.241 110.708 160.588 110.184C161.148 109.308 162.742 106.695 162.979 105.158C163.216 103.622 163.079 101.511 161.909 100.305C161.644 100.01 161.319 99.7735 160.957 99.612C160.594 99.4505 160.202 99.367 159.805 99.367C159.408 99.367 159.016 99.4505 158.654 99.612C158.291 99.7735 157.967 100.01 157.702 100.305C156.172 102.135 157.307 106.286 158.42 108.088C158.42 108.145 158.735 108.504 159.073 108.921C158.448 108.389 157.816 107.865 157.199 107.305C155.447 105.725 153.709 104.053 151.965 102.394L150.866 101.36C151.34 100.642 153.099 97.7701 153.343 96.212C153.587 94.6539 153.451 92.5646 152.273 91.3583C152.008 91.0644 151.684 90.8294 151.322 90.6686C150.961 90.5078 150.569 90.4247 150.173 90.4247C149.777 90.4247 149.386 90.5078 149.024 90.6686C148.662 90.8294 148.338 91.0644 148.073 91.3583C146.544 93.1892 147.671 97.3393 148.791 99.1414C148.834 99.2061 149.172 99.6297 149.545 100.104C148.59 99.2132 147.614 98.3373 146.63 97.4972C144.94 96.0494 143.155 94.7158 141.288 93.5051C141.46 93.2467 143.586 89.9869 143.851 88.2135C144.095 86.6339 143.959 84.566 142.789 83.3598C142.52 83.0706 142.194 82.8399 141.832 82.6821C141.47 82.5244 141.08 82.443 140.685 82.443C140.29 82.443 139.899 82.5244 139.537 82.6821C139.176 82.8399 138.85 83.0706 138.581 83.3598C137.052 85.1907 138.186 89.3407 139.299 91.1429C139.378 91.2722 140.599 92.7943 141.058 93.2969L140.994 93.2538C139.13 92.1113 137.17 91.1358 135.135 90.3388C133.32 89.6184 131.464 89.0046 129.577 88.5007C127.833 88.0124 126.203 87.675 124.76 87.3878C123.984 87.237 123.266 87.1149 122.606 87.0072H122.649C122.649 87.0072 120.251 85.3989 120.085 85.3199C118.176 84.3722 113.932 83.6614 112.266 85.3702C111.998 85.662 111.794 86.0069 111.668 86.3826C111.541 86.7583 111.495 87.1564 111.532 87.5511C111.569 87.9458 111.689 88.3282 111.884 88.6736C112.078 89.019 112.343 89.3197 112.661 89.5561C113.982 90.6044 116.05 90.5254 117.594 90.1305C119.138 89.7356 121.837 87.6463 122.498 87.1293C123.216 87.2514 123.934 87.395 124.745 87.5673C126.181 87.8832 127.79 88.2853 129.52 88.7807C129.98 88.9171 130.468 89.0894 130.956 89.2402C130.094 89.1469 128.917 89.0392 128.802 89.0392C126.648 89.0392 122.577 90.4034 121.888 92.6866C121.783 93.069 121.76 93.4692 121.82 93.8611C121.88 94.253 122.022 94.6278 122.237 94.9611C122.452 95.2944 122.734 95.5787 123.066 95.7955C123.398 96.0122 123.772 96.1566 124.164 96.2192C125.815 96.5423 127.624 95.5012 128.809 94.4529C129.994 93.4046 131.48 90.2023 131.789 89.5059C132.837 89.8649 133.943 90.2239 135.006 90.7265C137.005 91.556 138.927 92.5603 140.75 93.7277C140.85 93.7995 140.951 93.8857 141.058 93.9503C140.642 93.8354 138.308 93.3472 138.143 93.3328C135.989 93.1318 131.803 94.0006 130.87 96.2048C130.725 96.5735 130.658 96.9686 130.676 97.3645C130.693 97.7604 130.793 98.1482 130.97 98.5029C131.146 98.8576 131.396 99.1713 131.701 99.4235C132.007 99.6757 132.362 99.8609 132.744 99.9671C134.352 100.47 136.262 99.644 137.554 98.725C139.048 97.6552 141.051 94.1442 141.144 94.0149C142.918 95.2301 144.611 96.5588 146.214 97.9926C147.413 99.0481 148.576 100.147 149.732 101.303C149.186 101.159 147.018 100.707 146.86 100.692C144.706 100.498 140.527 101.367 139.586 103.564C139.441 103.933 139.375 104.328 139.392 104.724C139.409 105.12 139.51 105.508 139.686 105.862C139.863 106.217 140.112 106.531 140.418 106.783C140.723 107.035 141.079 107.22 141.46 107.327C143.069 107.829 144.979 107.011 146.271 106.084C147.707 105.043 149.667 101.683 149.861 101.403L151.441 102.947C153.149 104.649 154.851 106.357 156.581 107.973C157.185 108.54 157.795 109.079 158.405 109.617C157.587 109.43 156.079 109.114 155.942 109.107C153.824 108.906 149.61 109.775 148.669 111.979C148.524 112.348 148.458 112.744 148.476 113.14C148.493 113.537 148.594 113.925 148.772 114.279C148.949 114.634 149.199 114.948 149.505 115.2C149.812 115.452 150.168 115.636 150.55 115.742C152.159 116.237 154.061 115.418 155.354 114.499C156.646 113.58 158.348 110.78 158.814 109.99C159.834 110.881 160.868 111.742 161.931 112.539C162.397 112.877 162.85 113.257 163.309 113.545L164.68 114.456C165.635 115.052 166.526 115.605 167.43 116.136L168.766 116.905C167.962 116.589 166.677 116.115 166.554 116.086C164.487 115.569 160.193 115.785 158.929 117.817C158.731 118.159 158.606 118.539 158.563 118.933C158.521 119.327 158.562 119.725 158.683 120.102C158.804 120.479 159.003 120.826 159.267 121.121C159.531 121.417 159.853 121.653 160.215 121.816C161.729 122.534 163.74 122.031 165.154 121.313C166.72 120.523 169.075 117.608 169.362 117.249C170.46 117.874 171.516 118.47 172.543 119.008C175.249 120.444 177.569 121.615 179.435 122.469C185.388 127.617 193.795 128.213 193.795 128.213C193.795 128.213 194.241 118.161 188.331 111.584C186.232 109.388 183.672 107.684 180.835 106.594ZM170.209 116.373C170.396 115.957 171.817 112.783 171.918 110.974C172.248 110.917 172.586 110.845 172.909 110.773C173.511 113.941 174.768 116.949 176.599 119.604C175.515 119.087 174.345 118.52 173.103 117.888C172.176 117.415 171.207 116.905 170.209 116.373Z" fill="#F36563"/>
<path d="M224.734 104.67C224.734 104.67 214.682 104.979 208.557 111.362C202.433 117.745 202.476 127.804 202.476 127.804C202.476 127.804 212.528 127.495 218.653 121.112C224.777 114.729 224.734 104.67 224.734 104.67Z" fill="#F36563"/>
<g opacity="0.5">
<path opacity="0.5" d="M159.482 65.7975C159.482 65.7975 162.771 63.1984 163.618 61.5326C164.336 60.0966 164.853 58.1006 164.113 56.5928C163.954 56.2291 163.719 55.9033 163.425 55.6365C163.131 55.3698 162.783 55.1682 162.406 55.0448C162.028 54.9215 161.629 54.8792 161.234 54.9208C160.839 54.9623 160.458 55.0868 160.114 55.286C158.082 56.5497 157.867 60.8433 158.384 62.9112C158.427 63.1122 159.446 65.8262 159.482 65.7975Z" fill="white"/>
<path opacity="0.5" d="M129.061 87.4452C129.197 87.5745 131.545 89.2761 131.552 89.233C131.559 89.19 132.866 85.2481 132.651 83.3957C132.464 81.8161 131.789 79.8488 130.339 79.0015C130.004 78.7882 129.629 78.6479 129.237 78.5897C128.845 78.5316 128.445 78.5569 128.063 78.664C127.682 78.7711 127.327 78.9575 127.023 79.2112C126.718 79.4649 126.471 79.78 126.296 80.136C125.298 82.3043 127.488 86.0092 129.061 87.4452Z" fill="white"/>
<path opacity="0.5" d="M198.01 69.7322C198.01 69.7322 185.962 82.1679 186.027 97.4398C186.091 112.712 198.233 125.047 198.233 125.047C198.233 125.047 210.281 112.611 210.216 97.3393C210.151 82.0674 198.01 69.7322 198.01 69.7322Z" fill="white"/>
<path opacity="0.5" d="M180.835 106.594C180.991 106.42 181.135 106.235 181.266 106.041C182.142 104.713 182.889 102.782 182.329 101.195C182.21 100.817 182.013 100.468 181.75 100.171C181.487 99.8736 181.165 99.6354 180.803 99.4715C180.442 99.3075 180.051 99.2215 179.654 99.2191C179.258 99.2167 178.865 99.2979 178.502 99.4574C176.865 100.233 176.068 102.854 175.896 105C175.242 104.85 174.653 104.735 174.144 104.648C173.928 104.167 173.713 103.672 173.49 103.212C173.268 102.753 173.088 102.193 172.88 101.676C172.593 100.915 172.334 100.111 172.069 99.3138C173.024 98.883 175.802 97.5906 176.836 96.4418C177.87 95.293 178.933 93.4621 178.617 91.8107C178.557 91.4188 178.415 91.044 178.2 90.7107C177.985 90.3775 177.703 90.0932 177.371 89.8764C177.039 89.6596 176.665 89.5152 176.273 89.4526C175.882 89.39 175.482 89.4106 175.099 89.5131C172.808 90.2311 171.466 94.2806 171.415 96.413C171.415 96.4848 171.415 96.9372 171.501 97.4685C171.272 96.6787 171.035 95.8961 170.834 95.0919C170.245 92.8015 169.714 90.4536 169.175 88.1058C169.067 87.6104 168.945 87.1293 168.831 86.6698C169.635 86.318 172.65 84.9394 173.734 83.7403C174.819 82.5413 175.838 80.7606 175.522 79.1092C175.461 78.7171 175.318 78.3422 175.103 78.0089C174.887 77.6756 174.604 77.3914 174.272 77.1747C173.939 76.958 173.565 76.8137 173.173 76.7511C172.781 76.6886 172.38 76.7092 171.997 76.8116C169.714 77.5296 168.371 81.5792 168.321 83.7116C168.321 83.7834 168.364 84.3219 168.421 84.925C168.105 83.6542 167.782 82.3905 167.423 81.1412C166.814 79.0012 166.06 76.9046 165.169 74.8659C165.456 74.7438 169.024 73.2001 170.231 71.8646C171.3 70.6871 172.327 68.8849 172.011 67.2335C171.951 66.8417 171.809 66.4669 171.594 66.1336C171.38 65.8003 171.097 65.516 170.765 65.2993C170.433 65.0825 170.059 64.9381 169.668 64.8755C169.276 64.8129 168.876 64.8335 168.493 64.9359C166.21 65.6539 164.86 69.7034 164.817 71.8359C164.817 71.9867 164.989 73.9325 165.075 74.6289V74.5571C164.155 72.5737 163.057 70.6776 161.794 68.8921C160.688 67.2893 159.489 65.7525 158.204 64.2897C157.019 62.9255 155.849 61.7408 154.808 60.6997C154.234 60.1469 153.702 59.6443 153.207 59.1847H153.257C153.3 59.1847 152.137 56.521 152.044 56.363C150.981 54.5177 147.829 51.5883 145.496 52.055C145.111 52.1509 144.751 52.3265 144.438 52.5705C144.126 52.8145 143.868 53.1215 143.682 53.4715C143.496 53.8215 143.385 54.2067 143.358 54.6022C143.33 54.9976 143.385 55.3945 143.521 55.7671C144.045 57.3682 145.811 58.4452 147.319 58.9622C148.827 59.4791 152.223 59.2422 153.063 59.1632C153.573 59.6514 154.112 60.1828 154.693 60.7715C155.713 61.827 156.847 63.0332 158.01 64.419C158.312 64.7851 158.628 65.2016 158.944 65.5893C158.276 65.0364 157.357 64.2969 157.256 64.2323C155.461 63.0907 151.311 61.9419 149.48 63.464C149.181 63.7245 148.941 64.0452 148.774 64.4052C148.608 64.7652 148.519 65.1563 148.514 65.5529C148.51 65.9495 148.589 66.3426 148.747 66.7065C148.904 67.0704 149.137 67.3968 149.43 67.6643C150.629 68.849 152.704 68.9854 154.277 68.7557C155.849 68.5259 158.85 66.6807 159.489 66.2714C160.171 67.1474 160.854 68.0664 161.507 69.0644C162.708 70.8577 163.748 72.7534 164.616 74.7294C164.666 74.8443 164.702 74.9664 164.752 75.0813C164.472 74.751 162.792 73.0637 162.663 72.9273C161.004 71.5918 157.012 69.9906 155.016 71.3046C154.691 71.5315 154.417 71.8243 154.213 72.1641C154.008 72.5039 153.878 72.8829 153.83 73.2765C153.782 73.6701 153.817 74.0695 153.934 74.4485C154.05 74.8275 154.245 75.1776 154.506 75.4762C155.576 76.7829 157.615 77.1491 159.202 77.0917C161.04 77.027 164.645 75.2033 164.781 75.1387C165.595 77.1307 166.276 79.1743 166.82 81.2561C167.229 82.7926 167.588 84.3722 167.926 85.9518C167.552 85.5353 165.994 83.9629 165.865 83.8624C164.207 82.5269 160.215 80.9258 158.218 82.2397C157.893 82.4666 157.62 82.7595 157.415 83.0992C157.211 83.439 157.08 83.8181 157.032 84.2117C156.984 84.6053 157.019 85.0046 157.136 85.3836C157.253 85.7626 157.448 86.1128 157.709 86.4113C158.779 87.7181 160.818 88.0842 162.404 88.0268C164.199 87.9622 167.66 86.2318 167.955 86.0882C168.113 86.8062 168.263 87.5242 168.414 88.2422C168.902 90.5972 169.383 92.9666 169.922 95.2858C170.109 96.0899 170.324 96.8726 170.539 97.6624C169.951 97.0521 168.866 95.9607 168.766 95.8745C167.107 94.5462 163.108 92.9451 161.119 94.2519C160.794 94.4787 160.52 94.7716 160.316 95.1114C160.111 95.4512 159.981 95.8302 159.933 96.2238C159.885 96.6174 159.92 97.0167 160.037 97.3957C160.153 97.7747 160.348 98.1249 160.609 98.4234C161.672 99.7302 163.718 100.104 165.305 100.039C166.892 99.9743 169.85 98.6029 170.676 98.1865C171.035 99.4933 171.394 100.786 171.868 102.035C172.069 102.573 172.241 103.134 172.464 103.636L172.801 104.433L172.342 104.39C172.342 104.39 172.342 105.108 172.377 106.35C170.626 105.101 168.069 104.024 166.454 104.785C166.099 104.96 165.784 105.208 165.531 105.513C165.278 105.817 165.092 106.172 164.985 106.553C164.878 106.934 164.853 107.334 164.91 107.726C164.968 108.118 165.107 108.493 165.319 108.827C165.427 109.007 165.549 109.178 165.686 109.337C166.004 111.178 166.785 112.907 167.955 114.363C168.041 114.471 169.233 115.569 169.857 116.115C169.254 115.792 168.658 115.469 168.041 115.124C167.143 114.622 166.217 114.069 165.312 113.537L163.919 112.654C163.446 112.36 163.022 112.03 162.562 111.714C161.902 111.233 161.241 110.708 160.588 110.184C161.148 109.308 162.742 106.695 162.979 105.158C163.216 103.622 163.079 101.511 161.909 100.305C161.644 100.01 161.319 99.7735 160.957 99.612C160.594 99.4505 160.202 99.367 159.805 99.367C159.408 99.367 159.016 99.4505 158.654 99.612C158.291 99.7735 157.967 100.01 157.702 100.305C156.172 102.135 157.307 106.286 158.42 108.088C158.42 108.145 158.735 108.504 159.073 108.921C158.448 108.389 157.816 107.865 157.199 107.305C155.447 105.725 153.709 104.053 151.965 102.394L150.866 101.36C151.34 100.642 153.099 97.7701 153.343 96.212C153.587 94.6539 153.451 92.5646 152.273 91.3583C152.008 91.0644 151.684 90.8294 151.322 90.6686C150.961 90.5078 150.569 90.4247 150.173 90.4247C149.777 90.4247 149.386 90.5078 149.024 90.6686C148.662 90.8294 148.338 91.0644 148.073 91.3583C146.544 93.1892 147.671 97.3393 148.791 99.1414C148.834 99.2061 149.172 99.6297 149.545 100.104C148.59 99.2132 147.614 98.3373 146.63 97.4972C144.94 96.0494 143.155 94.7158 141.288 93.5051C141.46 93.2467 143.586 89.9869 143.851 88.2135C144.095 86.6339 143.959 84.566 142.789 83.3598C142.52 83.0706 142.194 82.8399 141.832 82.6821C141.47 82.5244 141.08 82.443 140.685 82.443C140.29 82.443 139.899 82.5244 139.537 82.6821C139.176 82.8399 138.85 83.0706 138.581 83.3598C137.052 85.1907 138.186 89.3407 139.299 91.1429C139.378 91.2722 140.599 92.7943 141.058 93.2969L140.994 93.2538C139.13 92.1113 137.17 91.1358 135.135 90.3388C133.32 89.6184 131.464 89.0046 129.577 88.5007C127.833 88.0124 126.203 87.675 124.76 87.3878C123.984 87.237 123.266 87.1149 122.606 87.0072H122.649C122.649 87.0072 120.251 85.3989 120.085 85.3199C118.176 84.3722 113.932 83.6614 112.266 85.3702C111.998 85.662 111.794 86.0069 111.668 86.3826C111.541 86.7583 111.495 87.1564 111.532 87.5511C111.569 87.9458 111.689 88.3282 111.884 88.6736C112.078 89.019 112.343 89.3197 112.661 89.5561C113.982 90.6044 116.05 90.5254 117.594 90.1305C119.138 89.7356 121.837 87.6463 122.498 87.1293C123.216 87.2514 123.934 87.395 124.745 87.5673C126.181 87.8832 127.79 88.2853 129.52 88.7807C129.98 88.9171 130.468 89.0894 130.956 89.2402C130.094 89.1469 128.917 89.0392 128.802 89.0392C126.648 89.0392 122.577 90.4034 121.888 92.6866C121.783 93.069 121.76 93.4692 121.82 93.8611C121.88 94.253 122.022 94.6278 122.237 94.9611C122.452 95.2944 122.734 95.5787 123.066 95.7955C123.398 96.0122 123.772 96.1566 124.164 96.2192C125.815 96.5423 127.624 95.5012 128.809 94.4529C129.994 93.4046 131.48 90.2023 131.789 89.5059C132.837 89.8649 133.943 90.2239 135.006 90.7265C137.005 91.556 138.927 92.5603 140.75 93.7277C140.85 93.7995 140.951 93.8857 141.058 93.9503C140.642 93.8354 138.308 93.3472 138.143 93.3328C135.989 93.1318 131.803 94.0006 130.87 96.2048C130.725 96.5735 130.658 96.9686 130.676 97.3645C130.693 97.7604 130.793 98.1482 130.97 98.5029C131.146 98.8576 131.396 99.1713 131.701 99.4235C132.007 99.6757 132.362 99.8609 132.744 99.9671C134.352 100.47 136.262 99.644 137.554 98.725C139.048 97.6552 141.051 94.1442 141.144 94.0149C142.918 95.2301 144.611 96.5588 146.214 97.9926C147.413 99.0481 148.576 100.147 149.732 101.303C149.186 101.159 147.018 100.707 146.86 100.692C144.706 100.498 140.527 101.367 139.586 103.564C139.441 103.933 139.375 104.328 139.392 104.724C139.409 105.12 139.51 105.508 139.686 105.862C139.863 106.217 140.112 106.531 140.418 106.783C140.723 107.035 141.079 107.22 141.46 107.327C143.069 107.829 144.979 107.011 146.271 106.084C147.707 105.043 149.667 101.683 149.861 101.403L151.441 102.947C153.149 104.649 154.851 106.357 156.581 107.973C157.185 108.54 157.795 109.079 158.405 109.617C157.587 109.43 156.079 109.114 155.942 109.107C153.824 108.906 149.61 109.775 148.669 111.979C148.524 112.348 148.458 112.744 148.476 113.14C148.493 113.537 148.594 113.925 148.772 114.279C148.949 114.634 149.199 114.948 149.505 115.2C149.812 115.452 150.168 115.636 150.55 115.742C152.159 116.237 154.061 115.418 155.354 114.499C156.646 113.58 158.348 110.78 158.814 109.99C159.834 110.881 160.868 111.742 161.931 112.539C162.397 112.877 162.85 113.257 163.309 113.545L164.68 114.456C165.635 115.052 166.526 115.605 167.43 116.136L168.766 116.905C167.962 116.589 166.677 116.115 166.554 116.086C164.487 115.569 160.193 115.785 158.929 117.817C158.731 118.159 158.606 118.539 158.563 118.933C158.521 119.327 158.562 119.725 158.683 120.102C158.804 120.479 159.003 120.826 159.267 121.121C159.531 121.417 159.853 121.653 160.215 121.816C161.729 122.534 163.74 122.031 165.154 121.313C166.72 120.523 169.075 117.608 169.362 117.249C170.46 117.874 171.516 118.47 172.543 119.008C175.249 120.444 177.569 121.615 179.435 122.469C185.388 127.617 193.795 128.213 193.795 128.213C193.795 128.213 194.241 118.161 188.331 111.584C186.232 109.388 183.672 107.684 180.835 106.594ZM170.209 116.373C170.396 115.957 171.817 112.783 171.918 110.974C172.248 110.917 172.586 110.845 172.909 110.773C173.511 113.941 174.768 116.949 176.599 119.604C175.515 119.087 174.345 118.52 173.103 117.888C172.176 117.415 171.207 116.905 170.209 116.373Z" fill="white"/>
<path opacity="0.5" d="M224.734 104.67C224.734 104.67 214.682 104.979 208.557 111.362C202.433 117.745 202.476 127.804 202.476 127.804C202.476 127.804 212.528 127.495 218.653 121.112C224.777 114.729 224.734 104.67 224.734 104.67Z" fill="white"/>
</g>
<path d="M198.505 111.139L208.356 102.279L207.94 101.805L198.498 110.292L198.448 98.6819L198.498 98.7178L206.834 86.5262L206.317 86.1672L198.441 97.6767L198.326 69.7322L197.694 69.7393L197.773 88.7017L191.498 83.2736L191.089 83.7475L197.78 89.5418L197.838 103.098L188.324 94.6898L187.908 95.1565L197.838 103.945L197.895 116.294L190.744 110.687L190.356 111.182L197.895 117.099L197.931 125.047H198.563L198.498 111.132L198.505 111.139Z" fill="white"/>
<path d="M189.423 114.557L188.798 114.485L188.001 121.5L183.772 116.776H183.779L182.702 108.282L182.078 108.361L183.04 115.957L172.521 104.196L172.047 104.62L179.184 112.597L174.668 112.654L174.675 113.286L179.744 113.221L184.749 118.815L177.683 118.822V119.454L185.316 119.446L189.861 124.53L184.878 124.831L184.921 125.463L190.399 125.133L193.429 128.522L193.903 128.098L188.568 122.132L189.423 114.557Z" fill="white"/>
<path d="M213.239 117.056L221.625 115.354L221.503 114.736L214 116.259L224.942 104.893L224.483 104.455L217.059 112.166L216.671 107.664L216.039 107.722L216.477 112.769L211.271 118.176L210.74 111.132L210.108 111.182L210.683 118.786L205.951 123.704L205.283 118.757L204.659 118.843L205.391 124.286L202.239 127.56L202.699 127.998L208.249 122.232L215.867 122.527L215.895 121.895L208.837 121.622L213.239 117.048V117.056Z" fill="white"/>
<path d="M116.732 214.459C117.3 217.281 124.078 218.416 124.078 218.416L129.104 215.544C131.207 233.206 133.074 247.624 133.699 248.88C135.393 252.269 147.822 247.753 148.949 242.102C149.409 239.819 147.183 224.418 144.375 206.885L161.938 196.919C161.938 196.919 162.706 194.399 157.242 195.375C155.332 195.72 149.76 197.795 143.342 200.48C139.393 176.283 134.826 150.608 134.826 150.608C134.826 150.608 194.693 215.558 197.522 215.558C200.351 215.558 204.3 214.998 202.605 209.914C200.911 204.831 134.826 141.575 134.826 141.575C134.826 141.575 123.532 141.008 121.277 146.091C121.277 146.091 124.803 178.775 128.134 207.294C121.522 210.518 116.517 213.382 116.732 214.459Z" fill="#263238"/>
<path d="M250.266 197.809C250.192 194.886 249.902 191.973 249.397 189.092C248.399 183.33 246.563 177.745 243.948 172.514C242.67 169.921 241.209 167.423 239.575 165.039C237.976 162.665 236.225 160.396 234.334 158.247C232.475 156.104 230.487 154.075 228.381 152.173C224.223 148.425 219.723 145.074 214.94 142.164C195.942 130.626 174.014 125.334 152.302 125.65C146.873 125.801 141.463 126.382 136.126 127.388C130.782 128.37 125.557 129.915 120.538 131.997C115.549 134.09 110.839 136.794 106.515 140.046C102.24 143.246 98.3387 146.916 94.8837 150.988C94.8221 151.055 94.7879 151.142 94.7879 151.232C94.7879 151.323 94.8221 151.41 94.8837 151.476C94.9171 151.51 94.9568 151.537 95.0005 151.555C95.0443 151.573 95.0912 151.583 95.1386 151.583C95.186 151.583 95.2329 151.573 95.2767 151.555C95.3204 151.537 95.3601 151.51 95.3935 151.476C99.0123 147.685 103.047 144.313 107.42 141.424C111.758 138.485 116.441 136.091 121.364 134.295C131.222 130.705 141.783 129.348 152.238 129.448C162.737 129.606 173.169 131.165 183.255 134.087C193.354 136.954 202.985 141.263 211.853 146.881C220.634 152.546 228.554 159.712 234.298 168.421C235.742 170.592 237.029 172.865 238.146 175.221C240.414 179.915 241.983 184.914 242.806 190.062C243.218 192.634 243.442 195.233 243.474 197.838C243.5 200.441 243.361 203.043 243.057 205.628C242.864 206.913 242.684 208.198 242.433 209.477L241.995 211.372L241.779 212.32L241.499 213.253C240.04 218.251 237.84 223.002 234.973 227.348C229.229 236.035 221.065 242.993 212.033 248.17C202.911 253.32 193.008 256.944 182.717 258.896C172.424 260.892 161.909 261.496 151.455 260.691C150.141 260.634 148.841 260.454 147.542 260.34C146.888 260.268 146.235 260.21 145.589 260.131L143.65 259.837C142.358 259.622 141.058 259.478 139.78 259.205L135.975 258.48C135.333 258.352 134.698 258.191 134.072 257.999L132.184 257.475C130.92 257.123 129.656 256.793 128.429 256.34L124.717 255.07L121.076 253.598C120.473 253.346 119.863 253.109 119.267 252.844L117.494 252.018C116.316 251.444 115.117 250.919 113.961 250.309C111.671 249.038 109.337 247.846 107.154 246.396L105.496 245.355L104.663 244.831L103.866 244.264L100.671 241.966C99.601 241.205 98.6173 240.336 97.5906 239.525L96.0684 238.29C95.5515 237.888 95.0919 237.414 94.6324 236.983L91.7604 234.326L89.032 231.476C88.5868 230.995 88.1201 230.543 87.6965 230.04L86.44 228.532L85.1835 227.024C84.7743 226.515 84.3291 226.034 83.9701 225.488L81.6869 222.3L81.1125 221.503L80.6027 220.663L79.5544 218.99C78.2018 216.754 76.9629 214.451 75.8423 212.09C73.6504 207.345 72.1257 202.319 71.3118 197.156C70.5518 191.983 70.5784 186.725 71.3907 181.561C72.2102 176.386 73.7245 171.346 75.8926 166.576C78.0782 161.815 80.772 157.303 83.927 153.121C90.3015 144.766 98.0198 137.528 106.767 131.703C106.844 131.653 106.899 131.574 106.919 131.484C106.939 131.394 106.923 131.3 106.874 131.222C106.825 131.141 106.746 131.084 106.655 131.061C106.564 131.038 106.467 131.052 106.386 131.1C101.807 133.819 97.4451 136.89 93.34 140.283C89.2169 143.73 85.4173 147.546 81.9884 151.685C78.4983 155.876 75.4991 160.453 73.0493 165.327C70.5532 170.284 68.7394 175.557 67.6572 181.001C66.6016 186.54 66.3982 192.208 67.054 197.809C67.7639 203.424 69.2475 208.914 71.4625 214.122C73.7004 219.259 76.4805 224.143 79.7555 228.69C80.136 229.279 80.5955 229.803 81.0191 230.356L82.3259 232L83.6255 233.637C84.0706 234.176 84.5589 234.678 85.0184 235.195L87.8473 238.283L90.8557 241.155C91.3655 241.629 91.8466 242.138 92.3779 242.591L93.9719 243.941C95.0417 244.824 96.0684 245.771 97.1813 246.604L100.52 249.146L101.36 249.771L102.222 250.345L103.966 251.494C106.25 253.095 108.72 254.366 111.146 255.802C112.367 256.462 113.631 257.044 114.873 257.676L116.747 258.595C117.379 258.889 118.025 259.148 118.664 259.421L122.512 261.043L126.454 262.479C127.761 262.982 129.104 263.355 130.446 263.75L132.457 264.339C133.124 264.54 133.799 264.734 134.489 264.877L138.581 265.818C139.953 266.134 141.353 266.313 142.738 266.536L144.821 266.881C145.539 266.981 146.192 267.046 146.874 267.132C148.245 267.275 149.617 267.484 150.995 267.57C156.507 268.076 162.048 268.177 167.574 267.871C173.117 267.589 178.635 266.929 184.088 265.897C195.154 263.862 205.81 260.022 215.63 254.531C225.43 248.866 234.384 241.162 240.846 231.34C244.074 226.387 246.54 220.977 248.162 215.292L248.471 214.23L248.722 213.145L249.203 210.991C249.483 209.555 249.685 208.062 249.921 206.605C250.245 203.685 250.361 200.745 250.266 197.809Z" fill="#263238"/>
<path d="M151.433 150.608C151.635 151.035 151.954 151.397 152.353 151.651C152.752 151.906 153.215 152.042 153.688 152.044C154.072 152.046 154.451 151.958 154.794 151.785L164.846 146.853L171.43 152.453C171.679 152.681 171.971 152.857 172.29 152.97C172.609 153.083 172.947 153.13 173.284 153.109C173.622 153.088 173.951 152.999 174.254 152.848C174.556 152.697 174.824 152.486 175.043 152.229C175.262 151.971 175.427 151.672 175.527 151.349C175.628 151.026 175.663 150.687 175.629 150.35C175.595 150.014 175.494 149.688 175.331 149.392C175.169 149.095 174.948 148.835 174.682 148.626L169.757 144.433L175.307 141.697C175.606 141.548 175.873 141.342 176.093 141.09C176.312 140.837 176.48 140.544 176.587 140.227C176.693 139.91 176.736 139.576 176.713 139.242C176.69 138.908 176.601 138.583 176.452 138.283C176.303 137.984 176.097 137.717 175.844 137.497C175.592 137.278 175.299 137.11 174.982 137.004C174.665 136.897 174.33 136.854 173.997 136.877C173.663 136.9 173.337 136.989 173.038 137.138L165.535 140.836L160.265 136.348C159.757 135.916 159.099 135.703 158.434 135.756C157.77 135.809 157.154 136.124 156.721 136.632C156.289 137.139 156.076 137.798 156.129 138.462C156.183 139.127 156.498 139.743 157.005 140.175L160.595 143.255L152.525 147.226C151.932 147.53 151.483 148.057 151.279 148.691C151.074 149.325 151.13 150.015 151.433 150.608Z" fill="#263238"/>
<path opacity="0.3" d="M308.022 300.842L260.785 280.207C255.041 275.317 248.241 269.674 247.143 269.394C245.147 268.891 246.145 266.4 249.641 260.404C253.138 254.409 228.511 242.928 222.214 243.538C217.188 244.034 211.2 243.021 209.039 242.605C210.841 237.256 212.7 231.95 212.7 231.95L188.224 221.237L168.73 191.498L162.641 193.436C162.641 193.436 171.171 212.909 181.173 235.202C177.482 234.025 169.979 232.424 169.233 238.426C168.235 246.41 174.223 252.406 180.211 252.406C183.514 252.406 186.673 252.255 188.827 252.119C199.748 276.15 210.367 298.681 212.176 299.83C216.175 302.328 230.126 305.818 230.65 302.328C231.174 298.839 216.671 273.371 216.671 273.371C216.671 273.371 293.554 303.822 301.56 303.822C309.566 303.822 308.022 300.842 308.022 300.842ZM235.145 257.891C235.145 257.891 232.919 264.289 233.242 268.159L220.132 262.415L235.145 257.891ZM199.697 231.433L197.945 236.114L193.939 229.997L199.697 231.433Z" fill="black"/>
<path d="M278.153 146.149C278.153 146.149 279.711 142.832 278.735 140.29C277.758 137.748 259.794 133.649 259.794 133.649C259.794 133.649 255.687 133.649 255.881 135.989C256.075 138.33 270.923 147.319 272.093 148.102C273.264 148.884 277.758 150.644 278.153 146.149Z" fill="white" stroke="#263238" stroke-linecap="round" stroke-linejoin="round"/>
<path d="M264.87 144.196C265.426 143.212 266.182 142.356 267.09 141.683C267.998 141.01 269.037 140.535 270.14 140.29C273.852 139.507 278.756 142.049 279.324 146.149C279.891 150.249 276.782 152.202 274.829 152.202C272.876 152.202 271.117 149.466 271.117 149.466C271.117 149.466 264.87 147.125 264.87 144.196Z" fill="white" stroke="#263238" stroke-linecap="round" stroke-linejoin="round"/>
<path d="M260.06 163.474C260.81 165.269 261.953 166.873 263.404 168.169C264.855 169.465 266.578 170.419 268.446 170.963C275.037 173.06 287.315 170.065 294.502 170.963L299.887 176.657L291.508 182.042C285.318 179.996 279.018 178.296 272.639 176.951C262.688 174.905 256.47 165.571 256.47 165.571L260.06 163.474Z" fill="#263238"/>
<path d="M166.626 190.665L162.649 193.436L164.551 194.815L167.667 193.781L166.626 190.665Z" fill="#263238" stroke="#263238" stroke-linecap="round" stroke-linejoin="round"/>
<path d="M256.994 124.02C256.994 124.02 255.285 123.395 253.734 122.62C252.183 121.845 253.885 125.413 254.509 125.571C255.134 125.729 256.663 126.038 256.663 126.038L256.994 124.02Z" fill="white" stroke="#263238" stroke-linecap="round" stroke-linejoin="round"/>
<path d="M173.656 179.902L165.944 190.148C165.677 190.5 165.514 190.921 165.474 191.361C165.433 191.801 165.516 192.244 165.714 192.639C165.943 193.097 166.313 193.468 166.77 193.698C167.227 193.929 167.745 194.005 168.249 193.917L179.435 191.972L300.44 122.405C301.824 121.599 303.032 120.523 303.993 119.241C304.954 117.96 305.648 116.498 306.034 114.943C306.419 113.389 306.489 111.772 306.239 110.19C305.988 108.608 305.423 107.092 304.576 105.733C303.734 104.385 302.633 103.219 301.336 102.302C300.039 101.385 298.573 100.736 297.022 100.391C295.471 100.047 293.868 100.015 292.305 100.297C290.742 100.58 289.25 101.17 287.918 102.035L173.656 179.902Z" fill="#F36563" stroke="#263238" stroke-linecap="round" stroke-linejoin="round"/>
<path d="M287.918 102.035L255.665 124.293C255.967 129.879 258.365 137.274 268.137 140.541L300.447 122.383C301.865 121.601 303.11 120.54 304.105 119.263C305.101 117.986 305.827 116.52 306.24 114.954C306.652 113.388 306.742 111.755 306.505 110.153C306.267 108.552 305.707 107.015 304.858 105.636C304.009 104.257 302.889 103.065 301.565 102.132C300.242 101.199 298.743 100.544 297.159 100.207C295.575 99.8705 293.94 99.8589 292.351 100.173C290.763 100.487 289.254 101.121 287.918 102.035Z" fill="#263238" stroke="#263238" stroke-linecap="round" stroke-linejoin="round"/>
<path d="M165.714 192.639C165.943 193.097 166.313 193.468 166.77 193.698C167.227 193.929 167.745 194.005 168.249 193.917L179.435 191.972C170.389 188.453 173.691 179.902 173.691 179.902L165.98 190.148C165.707 190.497 165.538 190.915 165.491 191.356C165.444 191.796 165.521 192.241 165.714 192.639Z" fill="#F36563" stroke="#263238" stroke-linecap="round" stroke-linejoin="round"/>
<path d="M247.071 127.589C247.071 127.589 245.333 127.589 245.333 128.378C245.333 129.168 244.881 131.968 245.886 131.889C246.891 131.81 246.798 130.044 246.884 129.427C246.97 128.809 247.071 127.589 247.071 127.589Z" fill="white" stroke="#263238" stroke-linecap="round" stroke-linejoin="round"/>
<path d="M248.974 124.724C248.974 124.724 247.416 124.25 247.064 125.205C246.712 126.16 246.346 130.69 247.416 130.575C248.485 130.461 248.73 126.368 248.974 124.724Z" fill="white" stroke="#263238" stroke-linecap="round" stroke-linejoin="round"/>
<path d="M251.357 124.968C251.357 124.968 249.57 123.417 248.974 124.724C248.378 126.031 248.256 129.75 248.974 129.75C249.692 129.75 250.762 128.199 250.998 127.366C251.177 126.577 251.297 125.775 251.357 124.968Z" fill="white" stroke="#263238" stroke-linecap="round" stroke-linejoin="round"/>
<path d="M253.863 125.65C253.863 125.65 251.594 123.74 251.235 124.099C250.876 124.458 249.448 128.134 250.517 128.874C251.587 129.613 252.951 126.318 252.951 126.318L253.863 125.65Z" fill="white" stroke="#263238" stroke-linecap="round" stroke-linejoin="round"/>
<path d="M225.387 143.356C225.387 143.356 225.639 147.19 226.658 148.08C227.274 148.617 227.832 149.216 228.324 149.868C228.461 150.842 228.545 151.822 228.575 152.805C228.575 153.954 229.344 153.832 230.011 153.832C230.679 153.832 231.799 155.986 232.438 157.019C233.135 157.964 234.068 158.707 235.145 159.173C236.294 159.805 238.204 157.386 238.204 157.386L240.731 161.586L249.799 155.713L245.333 147.032C245.07 144.02 244.153 141.102 242.648 138.481C240.099 133.885 236.646 131.301 230.902 132.988C225.158 134.675 225.387 143.356 225.387 143.356Z" fill="white" stroke="#263238" stroke-linecap="round" stroke-linejoin="round"/>
<path d="M239.812 159.066L235.928 155.16" stroke="#263238" stroke-linecap="round" stroke-linejoin="round"/>
<path d="M233.106 147.836C232.73 148.084 232.289 148.216 231.839 148.216C231.388 148.216 230.948 148.084 230.571 147.836C229.84 147.343 229.249 146.67 228.856 145.881C228.462 145.092 228.279 144.215 228.324 143.334C228.324 141.36 225.79 142.207 225.79 142.207C225.79 142.207 222.968 145.302 221 144.174C219.033 143.047 217.899 140.8 223.535 133.756C229.171 126.713 234.52 127 239.022 129.814C243.524 132.629 245.305 147.046 245.305 147.046C245.305 147.046 245.219 149.796 241.557 150.636C237.895 151.476 233.106 150.651 233.106 147.836Z" fill="#263238" stroke="#263238" stroke-linecap="round" stroke-linejoin="round"/>
<path d="M232.409 150.256C232.409 150.256 231.131 145.402 233.171 146.041C235.21 146.68 236.366 151.017 236.236 151.527C236.107 152.036 235.088 152.295 234.578 152.166" fill="white"/>
<path d="M232.409 150.256C232.409 150.256 231.131 145.402 233.171 146.041C235.21 146.68 236.366 151.017 236.236 151.527C236.107 152.036 235.088 152.295 234.578 152.166" stroke="#263238" stroke-linecap="round" stroke-linejoin="round"/>
<path d="M247.164 152.015C244.782 153.35 242.506 154.867 240.358 156.553C238.204 158.47 236.272 164.214 236.272 164.214C236.272 164.214 249.426 155.275 251.724 153.997C254.021 152.719 254.531 152.087 254.531 152.087C254.531 152.087 249.72 151.376 247.164 152.015Z" fill="white" stroke="#263238" stroke-linecap="round" stroke-linejoin="round"/>
<path d="M214.761 186.335C214.761 186.335 211.042 184.612 206.748 182.322C202.454 180.031 197.874 177.461 197.874 177.461C196.639 177.309 195.389 177.309 194.154 177.461C191.99 178.001 189.79 178.382 187.57 178.602C186.134 178.602 185.28 180.038 186.134 180.606C186.989 181.173 191.577 180.606 191.577 180.606L184.397 184.045C184.397 184.045 183.542 185.761 185.546 185.761C187.549 185.761 188.418 185.474 190.694 185.761C192.97 186.048 197.565 183.183 197.565 183.183C197.565 183.183 209.685 197.148 212.499 197.321C215.314 197.493 221.065 190.916 214.761 186.335Z" fill="white" stroke="#263238" stroke-linecap="round" stroke-linejoin="round"/>
<path d="M218.581 183.65C218.581 183.65 212.327 185.409 211.157 188.145C209.986 190.88 210.18 194.98 212.521 197.321C214.862 199.661 215.845 200.25 218.38 199.274C220.914 198.297 221.51 196.739 221.704 195.174C221.898 193.609 223.298 188.339 218.581 183.65Z" fill="white" stroke="#263238" stroke-linecap="round" stroke-linejoin="round"/>
<path d="M302.213 293.576C301.71 294.396 301.255 295.245 300.849 296.118C300.655 296.706 296.354 297.288 296.943 299.241C297.532 301.194 302.02 302.759 304.174 302.953C306.328 303.147 310.636 300.217 311.397 299.435C311.856 298.975 312.545 295.945 312.179 293.576C311.939 292.473 311.397 291.459 310.614 290.646C310.614 290.646 306.902 284.981 302.213 293.576Z" fill="white" stroke="#263238" stroke-linecap="round" stroke-linejoin="round"/>
<path d="M312.179 293.576C311.978 292.587 311.52 291.668 310.851 290.912C310.042 290.917 309.243 291.087 308.502 291.411C307.761 291.736 307.095 292.209 306.543 292.8C304.59 295.141 305.566 300.411 303.219 301.194C301.474 301.775 298.422 299.643 296.986 298.523C296.906 298.756 296.906 299.008 296.986 299.241C297.575 301.194 302.063 302.759 304.217 302.953C306.371 303.147 310.679 300.217 311.44 299.435C311.856 298.975 312.545 295.945 312.179 293.576Z" fill="white" stroke="#263238" stroke-linecap="round" stroke-linejoin="round"/>
<path d="M307.103 294.947C306.32 298.458 307.297 300.806 304.174 302.953C306.328 303.147 310.636 300.217 311.397 299.435C311.856 298.975 312.545 295.945 312.179 293.576C312.095 293.089 311.933 292.618 311.698 292.183H311.397C311.397 292.183 307.878 291.429 307.103 294.947Z" fill="#263238" stroke="#263238" stroke-linecap="round" stroke-linejoin="round"/>
<path d="M295.278 267.599C292.348 261.74 280.494 245.958 280.494 245.958C280.494 245.958 275.03 211.788 274.829 209.433C274.456 204.924 271.562 198.118 271.562 198.118C271.562 198.118 262.135 196.15 244.163 206.698L244.357 212.557L256.886 228.008C257.489 227.513 257.841 227.211 257.841 227.211C257.841 227.211 265.847 247.315 267.606 251.235C269.365 255.156 278.046 269.035 282.354 271.907C284.752 273.508 302.213 293.576 302.213 293.576C302.213 293.576 305.538 290.646 307.685 290.646H310.614C310.614 290.646 298.207 273.457 295.278 267.599Z" fill="#263238" stroke="#263238" stroke-linecap="round" stroke-linejoin="round"/>
<g opacity="0.35">
<path opacity="0.35" d="M298.516 285.326C300.899 288.334 302.472 290.582 302.472 290.582" stroke="white" stroke-linecap="round" stroke-linejoin="round"/>
<path opacity="0.35" d="M262.845 229.293C262.845 229.293 265.94 237.342 269.968 246.626C273.996 255.91 278.943 267.06 286.374 272.632C289.512 274.98 292.836 278.548 295.708 281.88" stroke="white" stroke-linecap="round" stroke-linejoin="round"/>
<path opacity="0.35" d="M271.318 221.151L257.841 227.204L272.136 226.507" stroke="white" stroke-linecap="round" stroke-linejoin="round"/>
</g>
<path d="M268.97 142.832C265.653 143.219 257.058 149.078 256.47 149.667C255.881 150.256 253.54 151.62 252.564 152.403C252.564 152.403 232.46 164.903 230.686 166.045C228.913 167.186 225.416 169.556 225.61 170.353C225.804 171.15 215.256 188.303 215.256 188.303C215.256 188.303 212.133 192.402 215.063 196.115C217.992 199.827 220.728 197.285 222.092 196.509C223.456 195.734 234.204 185.567 234.204 185.567L244.12 209.261C244.12 209.261 257.848 200.056 272.495 200.645L262.731 162.361C262.731 162.361 276.207 152.202 276.595 148.719C276.983 145.237 272.294 142.437 268.97 142.832Z" fill="white"/>
<path d="M268.97 142.832C267.642 142.983 265.466 144.016 263.298 145.244C263.792 145.149 264.304 145.202 264.769 145.396C265.234 145.59 265.631 145.917 265.911 146.336C267.527 148.411 264.066 155.088 264.066 155.088C264.066 155.088 262.63 145.855 262.687 148.626C262.745 151.397 261.969 159.913 261.969 159.913C261.969 159.913 257.36 154.384 257.59 155.77C257.819 157.156 260.814 170.051 262.659 174.89C264.504 179.73 261.273 193.322 259.435 197.242C257.597 201.162 258.717 180.656 256.671 185.718C254.624 190.78 247.71 204.86 246.095 206.246C244.479 207.631 246.611 187.455 247.186 184.828C246.468 187.025 241.722 200.939 241.722 200.939L235.26 184.354C235.26 184.354 224.203 175.364 225.351 176.98C226.5 178.595 229.272 183.664 229.272 183.664C229.272 183.664 222.587 182.279 223.743 182.738C224.899 183.198 229.961 185.732 229.961 185.732C229.961 185.732 219.6 193.142 216.606 194.032C215.801 194.27 214.973 194.421 214.136 194.485C214.352 195.087 214.665 195.649 215.063 196.15C217.992 199.863 220.728 197.321 222.092 196.545C223.456 195.77 234.204 185.603 234.204 185.603L244.12 209.261C244.12 209.261 257.848 200.056 272.495 200.645L262.731 162.361C262.731 162.361 276.207 152.202 276.595 148.719C276.983 145.237 272.294 142.437 268.97 142.832Z" fill="#F36563"/>
<path opacity="0.5" d="M268.97 142.832C267.642 142.983 265.466 144.016 263.298 145.244C263.792 145.149 264.304 145.202 264.769 145.396C265.234 145.59 265.631 145.917 265.911 146.336C267.527 148.411 264.066 155.088 264.066 155.088C264.066 155.088 262.63 145.855 262.687 148.626C262.745 151.397 261.969 159.913 261.969 159.913C261.969 159.913 257.36 154.384 257.59 155.77C257.819 157.156 260.814 170.051 262.659 174.89C264.504 179.73 261.273 193.322 259.435 197.242C257.597 201.162 258.717 180.656 256.671 185.718C254.624 190.78 247.71 204.86 246.095 206.246C244.479 207.631 246.611 187.455 247.186 184.828C246.468 187.025 241.722 200.939 241.722 200.939L235.26 184.354C235.26 184.354 224.203 175.364 225.351 176.98C226.5 178.595 229.272 183.664 229.272 183.664C229.272 183.664 222.587 182.279 223.743 182.738C224.899 183.198 229.961 185.732 229.961 185.732C229.961 185.732 219.6 193.142 216.606 194.032C215.801 194.27 214.973 194.421 214.136 194.485C214.352 195.087 214.665 195.649 215.063 196.15C217.992 199.863 220.728 197.321 222.092 196.545C223.456 195.77 234.204 185.603 234.204 185.603L244.12 209.261C244.12 209.261 257.848 200.056 272.495 200.645L262.731 162.361C262.731 162.361 276.207 152.202 276.595 148.719C276.983 145.237 272.294 142.437 268.97 142.832Z" fill="white"/>
<path d="M268.97 142.832C265.653 143.219 257.058 149.078 256.47 149.667C255.881 150.256 253.54 151.62 252.564 152.403C252.564 152.403 232.46 164.903 230.686 166.045C228.913 167.186 225.416 169.556 225.61 170.353C225.804 171.15 215.256 188.303 215.256 188.303C215.256 188.303 212.133 192.402 215.063 196.115C217.992 199.827 220.728 197.285 222.092 196.509C223.456 195.734 234.204 185.567 234.204 185.567L244.12 209.261C244.12 209.261 257.848 200.056 272.495 200.645L262.731 162.361C262.731 162.361 276.207 152.202 276.595 148.719C276.983 145.237 272.294 142.437 268.97 142.832Z" stroke="#263238" stroke-linecap="round" stroke-linejoin="round"/>
<path d="M244.12 209.261C243.543 203.878 243.819 198.438 244.939 193.142L244.12 209.261Z" fill="white"/>
<path d="M244.12 209.261C243.543 203.878 243.819 198.438 244.939 193.142" stroke="#263238" stroke-linecap="round" stroke-linejoin="round"/>
<path d="M242.26 197.292C242.26 197.292 242.26 193.989 245.972 183.65L242.26 197.292Z" fill="white"/>
<path d="M242.26 197.292C242.26 197.292 242.26 193.989 245.972 183.65" stroke="#263238" stroke-linecap="round" stroke-linejoin="round"/>
<path d="M226.586 177.009L234.204 185.603L226.393 179.938" fill="white"/>
<path d="M226.586 177.009L234.204 185.603L226.393 179.938" stroke="#263238" stroke-linecap="round" stroke-linejoin="round"/>
<path d="M262.723 151.426V162.361L265.258 148.296" fill="white"/>
<path d="M262.723 151.426V162.361L265.258 148.296" stroke="#263238" stroke-linecap="round" stroke-linejoin="round"/>
<path d="M247.25 184.583C247.221 184.662 247.199 184.744 247.186 184.828C247.272 184.562 247.301 184.461 247.25 184.583Z" fill="#263238"/>
<path d="M251.716 137.763C251.178 137.767 250.652 137.598 250.217 137.28C249.782 136.963 249.461 136.514 249.3 136C249.139 135.486 249.147 134.934 249.324 134.426C249.5 133.917 249.836 133.478 250.28 133.175L279.237 113.315C279.509 113.126 279.816 112.993 280.139 112.923C280.463 112.853 280.797 112.847 281.123 112.906C281.448 112.965 281.759 113.088 282.038 113.267C282.316 113.446 282.556 113.678 282.745 113.95C282.933 114.222 283.067 114.529 283.137 114.852C283.207 115.176 283.213 115.51 283.154 115.836C283.095 116.161 282.972 116.472 282.793 116.75C282.614 117.029 282.381 117.269 282.109 117.458L253.152 137.325C252.73 137.614 252.229 137.766 251.716 137.763Z" fill="#263238"/>
<path d="M259.234 133.57L281.75 118.075" stroke="white" stroke-linecap="round" stroke-linejoin="round"/>
<path d="M256.692 128.845L279.209 113.358" stroke="white" stroke-linecap="round" stroke-linejoin="round"/>
<path d="M244.357 212.528C244.357 212.528 222.666 237.751 222.192 243.495C221.718 249.239 226.019 254.983 231.282 256.419C236.545 257.855 287.853 258.997 287.853 258.997L287.372 249.426L241.815 242.54L256.893 227.979" fill="#263238"/>
<path d="M244.357 212.528C244.357 212.528 222.666 237.751 222.192 243.495C221.718 249.239 226.019 254.983 231.282 256.419C236.545 257.855 287.853 258.997 287.853 258.997L287.372 249.426L241.815 242.54L256.893 227.979" stroke="#263238" stroke-linecap="round" stroke-linejoin="round"/>
<g opacity="0.35">
<path opacity="0.35" d="M278.261 253.662L281.729 254.057" stroke="white" stroke-linecap="round" stroke-linejoin="round"/>
<path opacity="0.35" d="M229.48 241.657L228.489 242.914C228.489 242.914 234.678 242.605 233.443 243.84C232.623 244.81 232.086 245.988 231.892 247.243L235.605 246.317C235.605 246.317 233.451 250.625 234.987 250.345C236.163 250.055 237.304 249.639 238.39 249.103L274.29 253.203" stroke="white" stroke-linecap="round" stroke-linejoin="round"/>
<path opacity="0.35" d="M250.158 208.22C250.158 208.22 244.271 212.248 247.064 212.865C249.857 213.483 253.253 212.557 252.32 213.792C250.965 215.307 249.527 216.745 248.012 218.1L234.19 235.648" stroke="white" stroke-linecap="round" stroke-linejoin="round"/>
<path opacity="0.35" d="M247.064 212.887C247.064 212.887 250.467 207.933 258.207 207.624" stroke="white" stroke-linecap="round" stroke-linejoin="round"/>
</g>
<path d="M286.381 249.34C286.381 249.34 291.774 248.112 292.757 249.828C293.741 251.544 294.229 255.708 294.229 257.669C294.229 259.629 295.665 262.817 295.45 265.761C295.234 268.704 290.797 271.885 289.325 271.885C287.853 271.885 287.889 263.061 286.381 259.629C284.874 256.197 284.673 251.3 286.381 249.34Z" fill="white" stroke="#263238" stroke-linecap="round" stroke-linejoin="round"/>
<path d="M289.785 271.806C291.551 271.318 295.227 268.439 295.45 265.761C295.701 262.817 294.229 259.629 294.229 257.669C294.229 255.709 293.734 251.544 292.757 249.828C292.319 249.06 290.998 248.88 289.67 248.916C289.314 249.281 289.047 249.722 288.89 250.207C288.733 250.691 288.691 251.206 288.765 251.709C289.11 254.517 291.917 265.919 290.869 269.078C290.561 270.007 290.199 270.918 289.785 271.806Z" fill="white" stroke="#263238" stroke-linecap="round" stroke-linejoin="round"/>
<path d="M292.757 249.864C292.492 249.488 292.09 249.23 291.637 249.146C290.71 250.413 290.263 251.967 290.374 253.533C290.682 258.207 291.623 261.955 291.932 266.005C292.156 267.785 291.88 269.592 291.135 271.225C292.973 270.126 295.278 267.907 295.443 265.804C295.694 262.86 294.222 259.672 294.222 257.712C294.222 255.752 293.734 251.544 292.757 249.864Z" fill="#263238" stroke="#263238" stroke-linecap="round" stroke-linejoin="round"/>
</svg>
