<svg width="290" height="330" viewBox="0 0 290 330" fill="none" xmlns="http://www.w3.org/2000/svg">
<path d="M80.5897 121.522L20.9812 139.851C20.1455 140.039 19.281 140.06 18.4371 139.914C17.5932 139.767 16.7865 139.456 16.0631 138.997C15.3397 138.538 14.7139 137.942 14.2215 137.241C13.7291 136.54 13.3797 135.749 13.1934 134.913L1.66749 83.2157C1.29054 81.5275 1.5995 79.7587 2.52643 78.2983C3.45337 76.8379 4.92238 75.8054 6.61044 75.4279L67.8544 65.3496C70.0333 64.9912 72.2667 65.4801 74.0964 66.7162C75.9262 67.9522 77.2136 69.8416 77.6945 71.9967L86.4855 111.394C86.9557 113.514 86.6101 115.734 85.5175 117.61C84.425 119.487 82.6656 120.884 80.5897 121.522V121.522Z" stroke="#DADEEB" stroke-width="1.37431" stroke-miterlimit="10" stroke-linecap="round"/>
<path d="M100.563 239.388C92.4865 225.082 78.1157 195.286 74.2906 158.72" stroke="#DADEEB" stroke-width="1.37431" stroke-miterlimit="10" stroke-linecap="round"/>
<path d="M208.286 226.813C211.8 216.41 214.86 204.366 215.323 193.037" stroke="#DADEEB" stroke-width="1.37431" stroke-miterlimit="10" stroke-linecap="round"/>
<path d="M219.881 232.347C219.881 232.347 221.672 215.507 232.08 204.073L244.101 213.354C244.101 213.354 227.893 217.33 219.881 232.347Z" fill="#FFD550"/>
<path d="M246.418 242.473C266.523 243.914 281.676 259.958 280.367 278.222C279.058 296.486 261.771 310.204 241.666 308.763C221.561 307.322 206.407 291.278 207.716 273.014C209.026 254.75 226.312 241.032 246.418 242.473Z" stroke="#DADEEB"/>
<path d="M230.015 157.745C230.015 157.745 237.436 158.203 240.89 154.249C242.658 152.229 247.01 147.964 252.517 145.518C258.023 143.072 251.999 152.962 252.21 153.764C252.485 154.836 262.659 147.886 264.189 150.076C265.719 152.266 267.355 158.207 260.469 164.172C253.584 170.136 231.975 178.731 225.956 178.03C219.936 177.329 222.351 163.393 230.015 157.745Z" fill="#F3ABAA"/>
<path d="M251.233 154.391L247.133 158.262" stroke="#0D0F44" stroke-width="0.916209" stroke-miterlimit="10" stroke-linecap="round"/>
<path d="M75.9173 111.009C75.9173 111.009 74.3414 107.711 74.0849 101.645C73.8467 95.8686 72.4266 85.0115 68.9312 85.0115C67.2775 85.0115 63.7684 86.4728 64.057 96.8077C64.057 96.8077 63.2782 100.999 56.0677 93.1978C48.8571 85.3963 46.0214 85.8956 43.8867 87.5402C40.1027 90.4629 33.9412 97.9758 39.1086 108.892C44.276 119.809 61.6245 128.591 61.6245 128.591L75.9173 111.009Z" fill="#F3ABAA"/>
<path d="M44.102 89.4505C44.102 89.4505 49.4893 95.9785 52.5494 97.6964" stroke="#0D0F44" stroke-width="0.916209" stroke-miterlimit="10" stroke-linecap="round"/>
<path d="M41.8525 93.578C41.8525 93.578 47.2353 100.106 50.3 101.824" stroke="#0D0F44" stroke-width="0.916209" stroke-miterlimit="10" stroke-linecap="round"/>
<path d="M39.8779 98.498C39.8779 98.498 45.2606 105.017 48.3253 106.744" stroke="#0D0F44" stroke-width="0.916209" stroke-miterlimit="10" stroke-linecap="round"/>
<path d="M39.8779 104.806C41.5703 106.839 43.367 108.782 45.2606 110.629" stroke="#0D0F44" stroke-width="0.916209" stroke-miterlimit="10" stroke-linecap="round"/>
<path d="M86.7826 264.79L136.881 229.181C138.425 228.084 140.194 227.342 142.06 227.011C143.926 226.68 145.841 226.767 147.669 227.267L225.547 248.463C226.891 248.827 228.116 249.538 229.099 250.523C230.083 251.509 230.79 252.736 231.15 254.081C231.511 255.426 231.512 256.842 231.153 258.188C230.794 259.533 230.089 260.761 229.107 261.748L165.393 326.089C163.275 328.234 160.435 329.516 157.425 329.685C154.415 329.855 151.449 328.899 149.103 327.005L86.4116 276.188C85.5553 275.491 84.8716 274.606 84.4138 273.601C83.956 272.597 83.7364 271.5 83.7724 270.397C83.8083 269.294 84.0987 268.213 84.6208 267.241C85.143 266.268 85.8829 265.429 86.7826 264.79Z" fill="#0D0F44"/>
<path d="M231.085 247.258L231.424 257.428L226.449 261.666L231.085 247.258Z" fill="#0D0F44"/>
<path d="M83.773 263.997V271.634L91.4325 275.633L83.773 263.997Z" fill="#0D0F44"/>
<path d="M86.7835 258.175L136.882 222.562C138.426 221.464 140.195 220.723 142.061 220.392C143.926 220.061 145.842 220.148 147.67 220.647L225.548 241.843C226.892 242.207 228.117 242.918 229.1 243.904C230.084 244.89 230.791 246.117 231.151 247.462C231.512 248.807 231.512 250.223 231.154 251.568C230.795 252.914 230.089 254.141 229.107 255.129L165.394 319.469C163.273 321.611 160.431 322.889 157.421 323.054C154.411 323.219 151.447 322.26 149.104 320.363L86.4124 269.568C85.557 268.871 84.8741 267.986 84.4168 266.982C83.9595 265.978 83.7403 264.882 83.7762 263.78C83.8121 262.677 84.1022 261.597 84.6238 260.625C85.1455 259.653 85.8845 258.815 86.7835 258.175Z" fill="#22319E"/>
<path d="M216.692 256.507L193.787 279.628L193.026 276.421C191.858 271.24 188.211 254.785 185.032 237.569L213.691 245.357C214.82 245.661 215.85 246.256 216.677 247.083C217.504 247.91 218.099 248.939 218.403 250.068C218.707 251.197 218.708 252.386 218.408 253.517C218.108 254.647 217.516 255.678 216.692 256.507Z" fill="#DADEEB"/>
<path d="M127.105 291.685L128.557 294.223L96.9708 268.629C96.2529 268.045 95.6797 267.302 95.2962 266.46C94.9126 265.617 94.7289 264.698 94.7595 263.773C94.7901 262.847 95.0342 261.942 95.4726 261.127C95.911 260.311 96.5319 259.608 97.2869 259.073L112.056 248.578C115.448 263.463 120.496 277.923 127.105 291.685Z" fill="#DADEEB"/>
<path d="M161.065 46.2192C161.065 46.2192 175.413 43.8049 178.129 70.3109C180.214 90.6507 182.147 93.8162 182.742 95.7128C183.338 97.6093 196.151 112.049 192.477 127.111C192.477 127.111 186.76 146.352 168.981 149.581C151.202 152.811 149.104 109.442 149.104 109.442C149.104 109.442 146.685 53.3106 161.065 46.2192Z" fill="#22319E"/>
<path d="M61.7893 226.809C70.4522 226.809 77.4748 219.786 77.4748 211.123C77.4748 202.46 70.4522 195.438 61.7893 195.438C53.1265 195.438 46.1038 202.46 46.1038 211.123C46.1038 219.786 53.1265 226.809 61.7893 226.809Z" fill="#22319E"/>
<path d="M67.3512 210.825L61.3088 218.613C61.2075 218.747 61.0713 218.85 60.9152 218.912C60.7591 218.974 60.589 218.991 60.4236 218.963C60.2581 218.935 60.1036 218.861 59.977 218.751C59.8503 218.641 59.7564 218.498 59.7054 218.338L56.2559 207.884C56.2021 207.725 56.1929 207.555 56.2294 207.391C56.266 207.227 56.3468 207.076 56.463 206.955C56.5793 206.834 56.7266 206.748 56.8888 206.705C57.051 206.662 57.2219 206.664 57.3828 206.712L66.8702 209.359C67.0189 209.398 67.1556 209.473 67.2677 209.578C67.3798 209.683 67.4636 209.815 67.5115 209.961C67.5594 210.107 67.5699 210.262 67.5418 210.414C67.5138 210.565 67.4483 210.706 67.3512 210.825Z" fill="white"/>
<path d="M284.584 110.221L242.374 123.479C241.673 123.699 240.935 123.779 240.202 123.714C239.47 123.649 238.758 123.44 238.106 123.1C237.454 122.759 236.876 122.294 236.404 121.73C235.932 121.166 235.576 120.515 235.356 119.814L226.918 92.9459C226.49 91.5851 226.598 90.1123 227.22 88.8284C227.841 87.5445 228.929 86.5463 230.262 86.0376L271.981 70.0956C272.795 69.8399 273.651 69.747 274.501 69.8223C275.35 69.8976 276.177 70.1395 276.933 70.5343C277.689 70.9291 278.359 71.469 278.907 72.1232C279.454 72.7774 279.867 73.533 280.122 74.3468L288.826 102.076C289.343 103.719 289.186 105.499 288.391 107.027C287.596 108.554 286.226 109.703 284.584 110.221Z" fill="#22319E"/>
<path d="M265.124 100.33L259.292 102.699L251.866 96.9268L252.727 90.6965C252.772 90.3814 252.899 90.0835 253.094 89.8321C253.289 89.5807 253.546 89.3844 253.84 89.2627L267.272 83.8021C267.385 83.7567 267.507 83.7417 267.627 83.7587C267.748 83.7756 267.861 83.8239 267.957 83.8986C268.052 83.9733 268.127 84.0719 268.172 84.1844C268.218 84.2969 268.233 84.4194 268.216 84.5396L266.232 98.9012C266.187 99.215 266.061 99.5116 265.867 99.7622C265.672 100.013 265.416 100.209 265.124 100.33V100.33Z" stroke="white" stroke-width="1.83242" stroke-miterlimit="10" stroke-linecap="round"/>
<path d="M259.329 102.726L254.514 108.915C254.024 109.543 252.98 109.548 252.178 108.915L247.624 105.37C246.823 104.747 246.571 103.73 247.056 103.102L251.866 96.9268L259.329 102.726Z" stroke="white" stroke-width="1.83242" stroke-miterlimit="10" stroke-linecap="round"/>
<path d="M267.959 83.8983L260.996 92.8542" stroke="white" stroke-width="1.83242" stroke-miterlimit="10" stroke-linecap="round"/>
<path d="M259.438 97.4581C260.855 97.4581 262.004 96.3096 262.004 94.8928C262.004 93.4759 260.855 92.3274 259.438 92.3274C258.021 92.3274 256.873 93.4759 256.873 94.8928C256.873 96.3096 258.021 97.4581 259.438 97.4581Z" stroke="white" stroke-width="1.83242" stroke-miterlimit="10" stroke-linecap="round"/>
<path d="M193.797 279.628L163.232 310.495C161.452 312.292 159.068 313.363 156.543 313.501C154.018 313.639 151.532 312.834 149.567 311.242L128.558 294.223L127.106 291.685C120.497 277.923 115.449 263.463 112.057 248.578C105.103 218.604 106.239 195.653 106.239 195.653L179.751 195.754C179.472 204.54 182.042 221.408 185.042 237.569C188.222 254.785 191.868 271.24 193.036 276.421L193.797 279.628Z" fill="#0D0F44"/>
<path d="M134.729 228.879L141.316 231.399C141.316 231.399 141.513 252.293 165.797 305.873" stroke="#DADEEB" stroke-width="0.916209" stroke-miterlimit="10" stroke-linecap="round"/>
<path d="M141.407 99.5425C141.407 99.5425 121.709 100.66 114.379 114.939C105.387 132.347 94.5891 130.231 79.5129 112.255C78.9563 111.589 78.1828 111.14 77.3283 110.988C76.4737 110.835 75.5928 110.989 74.8402 111.421C69.2513 114.628 57.6384 122.704 63.044 131.761C70.053 143.498 91.2541 168.029 109.313 166.627C109.313 166.627 106.074 187.068 106.275 195.653C106.275 195.653 117.384 209.689 145.049 209.084C172.714 208.48 179.787 195.754 179.787 195.754C179.787 195.754 180.09 174.75 181.001 169.298C181.001 169.298 199.206 182.908 225.992 178.039C225.992 178.039 222.419 165.702 230.051 157.745C230.051 157.745 203.586 150.438 200.668 146.379C197.75 142.32 189.705 119.713 188.111 116.332C186.027 111.902 179.865 104.476 168.019 100.903C156.172 97.3299 141.407 99.5425 141.407 99.5425Z" fill="#F36563"/>
<path d="M118.686 117.761C118.686 117.761 112.602 135.243 109.588 163.549" stroke="#DADEEB" stroke-width="0.916209" stroke-miterlimit="10" stroke-linecap="round"/>
<path d="M161.825 128.586C161.825 128.586 167.101 146.241 170.826 156.5C172.039 159.838 173.087 162.393 173.736 163.302C176.379 167.003 180.96 169.298 180.96 169.298" stroke="white" stroke-width="0.916209" stroke-miterlimit="10" stroke-linecap="round"/>
<path d="M225.117 156.329C225.117 156.329 217.261 160.406 220.646 176.742" stroke="white" stroke-width="0.916209" stroke-miterlimit="10" stroke-linecap="round"/>
<path d="M81.5885 114.678C81.5885 114.678 71.753 119.571 66.9933 128.586" stroke="white" stroke-width="0.916209" stroke-miterlimit="10" stroke-linecap="round"/>
<path d="M136.318 51.0705C136.318 51.0705 127.742 54.9644 133.807 68.8129L141.389 55.4362L136.318 51.0705Z" fill="#22319E"/>
<path d="M163.951 78.2865C163.951 78.2865 159.562 100.578 159.562 102.387C159.562 104.197 147.514 107.055 140.744 101.471C140.744 101.471 145.783 86.8989 146.671 83.2523C147.56 79.6058 157.652 75.5654 163.951 78.2865Z" fill="#F3ABAA"/>
<path d="M163.951 78.2865L145.517 87.1691C144.871 89.2031 144.074 91.6265 143.295 93.917C143.295 93.917 159.553 96.487 163.951 78.2865Z" fill="#0D0F44"/>
<path d="M166.383 69.5963C166.383 79.1294 159.081 89.4459 150.07 89.4459C139.103 89.4459 133.074 82.9454 133.752 69.5963C134.238 60.1272 141.059 52.344 150.07 52.344C159.081 52.344 166.383 60.0677 166.383 69.5963Z" fill="#F3ABAA"/>
<path d="M158.811 69.9581C149.104 70.8972 136.268 63.3889 136.318 51.0705C136.368 38.752 147.661 38.2939 149.369 38.2939C151.078 38.2939 166.008 40.5478 170.584 55.4729C175.161 70.3979 162.879 69.5642 158.811 69.9581Z" fill="#22319E"/>
<path d="M167.513 77.0118C170.957 75.0231 172.764 71.7041 171.548 69.5985C170.333 67.4928 166.555 67.398 163.11 69.3866C159.666 71.3752 157.859 74.6943 159.075 76.7999C160.291 78.9055 164.068 79.0004 167.513 77.0118Z" fill="#F3ABAA"/>
<path d="M149.814 82.8538C149.814 82.8538 153.575 83.3348 155.11 80.041" stroke="#0D0F44" stroke-width="0.916209" stroke-miterlimit="10" stroke-linecap="round"/>
<path d="M163.932 73.9574L169.054 71.7448" stroke="#0D0F44" stroke-width="0.916209" stroke-miterlimit="10" stroke-linecap="round"/>
<path d="M142.644 71.5935L141.586 76.1059C141.555 76.2368 141.552 76.3726 141.576 76.5049C141.601 76.6371 141.652 76.7628 141.728 76.8742C141.803 76.9857 141.9 77.0803 142.014 77.1522C142.127 77.2242 142.255 77.2719 142.388 77.2924L143.473 77.4664" stroke="#0D0F44" stroke-width="0.916209" stroke-miterlimit="10" stroke-linecap="round"/>
<path d="M139.674 69.4933C139.831 68.1871 139.412 67.0627 138.739 66.9819C138.066 66.9012 137.393 67.8946 137.236 69.2009C137.08 70.5072 137.498 71.6315 138.172 71.7123C138.845 71.7931 139.518 70.7996 139.674 69.4933Z" fill="#0D0F44"/>
<path d="M149.106 71.1148C149.262 69.8085 148.844 68.6841 148.17 68.6033C147.497 68.5226 146.824 69.5161 146.668 70.8223C146.511 72.1286 146.93 73.253 147.603 73.3337C148.276 73.4145 148.949 72.421 149.106 71.1148Z" fill="#0D0F44"/>
<path d="M89.1654 14.949C88.5056 11.746 87.0186 8.77166 84.8523 6.32186C82.686 3.87205 79.916 2.03221 76.8179 0.985398C73.7197 -0.0614141 70.4015 -0.278702 67.1933 0.355153C63.9851 0.989009 60.9988 2.45191 58.5316 4.5983C56.0643 6.74469 54.2022 9.49973 53.1303 12.5893C52.0585 15.6789 51.8144 18.9953 52.4223 22.2085C53.0301 25.4217 54.4688 28.4197 56.5952 30.9042C58.7216 33.3888 61.4615 35.2732 64.5423 36.3699C65.2375 36.623 65.8557 37.051 66.3372 37.6128C66.8187 38.1745 67.1472 38.8509 67.2909 39.5767L67.749 41.7252C67.9531 42.7116 68.3495 43.6481 68.9156 44.4813C69.4817 45.3144 70.2064 46.0279 71.0482 46.5809C71.8901 47.134 72.8327 47.5157 73.8222 47.7044C74.8116 47.8931 75.8286 47.885 76.8149 47.6805C77.8013 47.4765 78.7378 47.0801 79.5709 46.514C80.4041 45.9479 81.1176 45.2232 81.6706 44.3813C82.2236 43.5394 82.6054 42.5968 82.7941 41.6074C82.9827 40.6179 82.9747 39.601 82.7702 38.6147L82.3121 36.4845C82.1587 35.7656 82.1917 35.0194 82.4083 34.317C82.6248 33.6145 83.0175 32.9792 83.549 32.4715C85.9167 30.283 87.6781 27.5194 88.6622 24.449C89.6463 21.3787 89.8196 18.1061 89.1654 14.949Z" fill="#FFD550"/>
<path d="M71.2709 37.4877L82.2196 35.2247" stroke="#F36563" stroke-width="2.29052" stroke-miterlimit="10" stroke-linecap="round"/>
<path d="M72.7876 3.8812C72.7876 3.8812 80.5342 5.04478 82.7743 11.8522" stroke="white" stroke-width="1.83242" stroke-miterlimit="10" stroke-linecap="round"/>
<path d="M49.9699 6.72601C49.9699 6.72601 43.7397 13.7488 47.1709 24.3356" stroke="#F36563" stroke-width="2.29052" stroke-miterlimit="10" stroke-linecap="round"/>
<path d="M44.0096 1.93423C44.0096 1.93423 34.8475 12.2737 39.8867 27.863" stroke="#F36563" stroke-width="2.29052" stroke-miterlimit="10" stroke-linecap="round"/>
</svg>
