<svg width="241" height="367" viewBox="0 0 241 367" fill="none" xmlns="http://www.w3.org/2000/svg">
<path d="M34.5329 174.673C34.5329 174.673 50.8782 221.758 82.0776 238.889" stroke="#DADEEB" stroke-width="1.26741" stroke-miterlimit="10" stroke-linecap="round"/>
<path d="M226.156 242.095L173.914 211.931C172.802 211.288 171.88 210.364 171.238 209.252C170.597 208.139 170.259 206.878 170.259 205.594C170.259 204.31 170.597 203.048 171.238 201.936C171.88 200.824 172.802 199.9 173.914 199.257L226.156 169.097C227.269 168.452 228.532 168.113 229.817 168.111C231.103 168.11 232.366 168.448 233.48 169.091C234.594 169.733 235.518 170.658 236.161 171.771C236.804 172.885 237.142 174.148 237.141 175.434V235.737C237.144 237.024 236.808 238.289 236.167 239.405C235.525 240.521 234.601 241.448 233.487 242.092C232.373 242.737 231.109 243.077 229.822 243.077C228.535 243.078 227.271 242.739 226.156 242.095Z" stroke="#DADEEB" stroke-width="1.26741" stroke-miterlimit="10"/>
<path d="M83.5225 138.29C83.5225 138.29 80.4934 153.241 83.5225 163.034" stroke="#F36563" stroke-width="1.68988" stroke-miterlimit="10" stroke-linecap="round"/>
<path d="M87.0283 286.251C87.0283 286.251 88.1098 299.877 82.2256 308.858C76.3414 317.839 70.6144 323.566 74.0211 334.11L118.303 311.66L112.885 281L87.0283 286.251Z" fill="#F36563"/>
<path d="M86.4001 303.736L96.5296 301.716" stroke="white" stroke-width="1.42936" stroke-miterlimit="10" stroke-linecap="round"/>
<path d="M133.717 314.721C133.717 314.721 137.095 328.565 132.525 338.783C127.955 349.001 123.008 355.846 128.258 366.103L170.118 335.658L159.463 305L133.717 314.721Z" fill="#F36563"/>
<path d="M135.889 334.774L146.424 332.544" stroke="white" stroke-width="1.49021" stroke-miterlimit="10" stroke-linecap="round"/>
<path d="M101.401 100.124C101.401 100.124 98.6932 86.4785 103.459 81.6792C108.224 76.88 115.981 74.7761 119.994 75.5661C122.723 76.1111 126.268 77.3574 126.754 84.5056C127.239 91.6537 126.166 94.0407 126.166 94.0407C126.166 94.0407 123.484 103.474 118.338 104.379C113.192 105.283 103.176 105.257 101.401 100.124Z" fill="#F3ABAA"/>
<path d="M119.902 76.166C119.902 76.166 120.206 79.6049 120.573 84.9914" stroke="#F36563" stroke-width="0.844939" stroke-miterlimit="10" stroke-linecap="round"/>
<path d="M113.332 77.425C113.332 77.425 113.919 82.3214 114.857 87.7374C115.524 91.565 119.373 92.7395 120.957 89.5076" stroke="#F36563" stroke-width="0.844939" stroke-miterlimit="10" stroke-linecap="round"/>
<path d="M107.954 80.3358C107.954 80.3358 108.799 86.9559 109.078 88.7852C109.357 90.6145 110.519 91.9157 111.795 91.9157C113.78 91.9157 114.596 91.0116 115.069 89.5076" stroke="#F36563" stroke-width="0.844939" stroke-miterlimit="10" stroke-linecap="round"/>
<path d="M109.086 90.1159C109.086 90.1159 108.123 91.9579 107.16 92.2959C106.196 92.6339 104.266 92.7183 103.695 91.3833C103.214 90.2554 102.926 88.7809 103.024 86.5207" stroke="#F36563" stroke-width="0.844939" stroke-miterlimit="10" stroke-linecap="round"/>
<path d="M117.591 96.322C117.591 96.322 114.444 93.0479 115.859 88.5909C117.274 84.1338 119.319 86.4785 119.319 86.4785C119.319 86.4785 123.751 90.5934 124.908 92.1438C125.821 93.369 127.266 96.791 125.85 98.7512C124.691 100.321 123.218 101.633 121.524 102.604C120.958 102.896 119.382 104.087 116.877 102.921C116.666 102.82 113.421 100.479 117.591 96.322Z" fill="#F3ABAA"/>
<path d="M180.408 216.058C180.408 216.058 189.094 205.29 191.02 194.09L124.726 181.788L88.8584 202.653C79.6951 207.322 69.2263 221.073 74.1016 243.523C78.4488 263.548 83.1847 291.055 83.2311 291.351C89.0531 294.485 95.7735 295.529 102.272 294.308C107.586 293.236 112.582 290.955 116.872 287.642C116.72 286.708 109.505 256.577 106.615 240.591C105.647 235.238 105.728 230.697 110.523 228.124C110.523 228.124 121.296 223.169 124.726 221.403C126.361 220.558 129.166 218.868 131.98 217.127C124.375 226.667 122.301 230.089 120.996 232.277C116.72 239.459 111.203 244.998 114.701 268.888C116.319 279.94 120.37 290.557 126.108 307.684C127.4 311.536 128.773 315.71 130.227 320.311C130.227 320.311 139.998 321.84 149.622 318.621C159.892 315.199 164.045 306.974 164.045 306.974C146.302 266.032 146.361 259.628 151.152 248.436C153.129 243.798 169.06 228.838 180.408 216.058Z" fill="#0D0F44"/>
<path d="M132.483 215.281L130.755 209.181" stroke="white" stroke-width="0.844939" stroke-miterlimit="10" stroke-linecap="round"/>
<path d="M128.482 314.857C128.482 314.857 144.857 318.659 157.717 306.851" stroke="white" stroke-width="0.844939" stroke-miterlimit="10" stroke-linecap="round"/>
<path d="M82.3064 286.066C82.3064 286.066 91.8246 291.376 102.762 287.79" stroke="white" stroke-width="0.844939" stroke-miterlimit="10" stroke-linecap="round"/>
<path d="M209.866 138.569C202.832 120.107 184.493 107.94 172.309 104.547C166.278 102.267 159.706 101.826 153.424 103.28C136.525 104.666 121.076 122.164 121.076 122.164C120.869 115.967 120.738 106.533 120.7 103.55C120.694 102.922 120.451 102.318 120.02 101.861C118.494 100.259 114.57 96.6896 110.223 97.2134C107.322 97.5886 104.576 98.7403 102.276 100.547C101.578 101.094 101.064 101.841 100.801 102.689C85.563 152.308 89.9862 163.723 97.1217 168.311C103.86 172.645 109.225 168.26 115.419 164.509C114.929 168.404 114.527 172.536 114.249 176.95C114.249 176.95 113.29 185.543 120.624 189.308C136.141 197.263 149.876 204.863 189.993 196.608C189.993 196.608 191.349 193.583 192.997 188.484C195.549 189.018 198.188 188.969 200.719 188.34C203.249 187.712 205.605 186.52 207.61 184.855C215.641 179.688 217.817 159.435 209.866 138.569Z" fill="#22319E"/>
<path d="M189.427 132.321C189.427 132.321 192.088 148.184 191.02 152.996" stroke="white" stroke-width="0.844939" stroke-miterlimit="10" stroke-linecap="round"/>
<path d="M135.985 116.034C135.985 116.034 124.363 124.243 116.281 160.537" stroke="white" stroke-width="0.844939" stroke-miterlimit="10" stroke-linecap="round"/>
<path d="M195.645 164.371C197.584 163.4 197.729 159.767 195.971 156.256C194.213 152.745 191.216 150.685 189.278 151.656C187.34 152.626 187.194 156.259 188.952 159.771C190.711 163.282 193.707 165.341 195.645 164.371Z" fill="#F3ABAA"/>
<path d="M229.025 47.7676C229.025 47.7676 233.005 62.6512 228.159 69.7361C224.298 75.376 230.335 74.5987 230.335 74.5987C230.335 74.5987 236.562 74.6536 235.666 61.4303C234.859 49.4829 229.025 47.7676 229.025 47.7676Z" fill="#FFD550"/>
<path d="M196.414 1.00869C198.581 -0.381235 201.251 -0.229146 203.596 0.822803C208.116 2.85066 217.668 8.31319 222.07 11.4733C227.959 15.698 232.678 19.2045 236.941 23.1292C239.556 25.5415 242.197 30.928 240.148 36.1244C237.368 43.1796 232.336 53.4794 220.406 58.1646C217.051 59.4785 212.113 58.6209 209.421 56.2212C201.344 49.0393 186.384 34.3415 183.942 24.3628C183.702 23.3625 183.76 22.3135 184.111 21.3464C185.442 17.6455 189.24 5.60093 196.414 1.00869Z" fill="#F36563"/>
<path d="M186.068 34.2951C186.068 34.2951 187.293 29.1959 195.924 22.1026C197.508 20.8014 199.684 19.9903 201.602 20.7C205.827 22.3054 213.097 26.4034 219.527 39.0225C219.998 39.9936 220.194 41.075 220.094 42.1496C219.995 43.2242 219.603 44.251 218.961 45.1188C216.747 48.1775 213.308 51.6502 201.606 55.4693L186.068 34.2951Z" fill="#F36563"/>
<path d="M202.156 55.1781C204.211 53.5329 202.238 47.6564 197.75 42.0526C193.262 36.4488 187.959 33.2398 185.904 34.885C183.85 36.5302 185.823 42.4067 190.311 48.0105C194.799 53.6142 200.102 56.8233 202.156 55.1781Z" fill="#0D0F44"/>
<path d="M178.506 53.0316C178.506 53.0316 183.998 56.4409 183.774 64.9156C183.774 64.9156 186.414 63.9059 188.277 65.0001C191.197 66.69 192.684 73.6565 188.611 81.2356C188.611 81.2356 184.42 93.7914 178.949 90.3314L162.726 71.3963L178.506 53.0316Z" fill="#0D0F44"/>
<path d="M162.257 85.0125C161.666 93.2169 155.958 105.38 155.958 105.38C155.958 105.38 161.873 111.991 177.399 108.24C177.399 108.24 178.011 100.259 178.096 97.8345C178.472 87.3657 176.799 83.6015 176.676 85.435L162.257 85.0125Z" fill="#F3ABAA"/>
<path d="M159.279 97.1924C159.279 97.1924 170.264 99.7272 178.058 91.3412C178.037 90.999 178.016 90.6737 177.991 90.361L161.227 90.8764C160.682 93.031 159.985 95.2025 159.279 97.1924Z" fill="#0D0F44"/>
<path d="M167.662 94.6406C177.009 94.6406 184.586 87.0634 184.586 77.7165C184.586 68.3695 177.009 60.7923 167.662 60.7923C158.315 60.7923 150.737 68.3695 150.737 77.7165C150.737 87.0634 158.315 94.6406 167.662 94.6406Z" fill="#F3ABAA"/>
<path d="M184.201 81.6877C183.162 83.7029 182.055 83.5043 181.738 82.8537C180.868 81.0456 181.582 79.474 180.657 73.5594C180.323 71.6165 179.296 69.8604 177.767 68.6165C173.234 64.6791 165.938 65.6381 165.798 65.6592C164.011 65.7564 162.283 66.3647 160.691 66.8168C147.903 70.45 147.484 62.3006 147.484 58.7645C147.484 52.7823 152.208 47.9282 158.046 47.9282C159.885 47.9385 161.689 48.4313 163.278 49.3573C164.866 50.2832 166.184 51.6099 167.1 53.2048C168.795 51.5782 171.053 50.67 173.403 50.67C178.527 50.67 182.697 54.9369 182.697 60.1967C182.701 61.7596 182.327 63.3004 181.607 64.6875C183.914 66.2507 184.932 69.7994 185.266 71.1767C185.971 74.0706 185.46 79.2416 184.201 81.6877Z" fill="#0D0F44"/>
<path d="M170.565 75.6412C170.718 74.3271 170.319 73.201 169.675 73.126C169.031 73.051 168.384 74.0555 168.231 75.3695C168.079 76.6836 168.477 77.8097 169.121 77.8847C169.765 77.9597 170.412 76.9552 170.565 75.6412Z" fill="#0D0F44"/>
<path d="M161.782 74.6149C161.935 73.3008 161.537 72.1747 160.893 72.0997C160.248 72.0247 159.602 73.0292 159.449 74.3433C159.296 75.6574 159.694 76.7834 160.339 76.8584C160.983 76.9334 161.629 75.929 161.782 74.6149Z" fill="#0D0F44"/>
<path d="M169.405 85.9631C169.405 85.9631 172.489 87.184 173.765 83.3057" stroke="#0D0F44" stroke-width="0.844939" stroke-miterlimit="10" stroke-linecap="round"/>
<path d="M185.902 85.0584C188.384 83.251 189.403 80.4219 188.178 78.7394C186.953 77.0569 183.948 77.1582 181.466 78.9656C178.983 80.773 177.964 83.6021 179.189 85.2846C180.414 86.9671 183.42 86.8658 185.902 85.0584Z" fill="#F3ABAA"/>
<path d="M181.738 82.8537L186.735 80.716" stroke="#0D0F44" stroke-width="0.844939" stroke-miterlimit="10" stroke-linecap="round"/>
<path d="M164.953 75.5534L163.85 80.2682C163.818 80.4052 163.815 80.5472 163.841 80.6854C163.867 80.8236 163.922 80.9549 164.001 81.0709C164.081 81.1869 164.183 81.2852 164.303 81.3593C164.422 81.4335 164.556 81.482 164.695 81.5018L165.827 81.6835" stroke="#0D0F44" stroke-width="0.844939" stroke-miterlimit="10" stroke-linecap="round"/>
<path d="M36.2783 132.616L42.0873 137.2C42.3957 137.446 42.7591 137.612 43.1462 137.686C43.5334 137.759 43.9326 137.738 44.3095 137.623L51.3774 135.438C51.8108 135.304 52.2733 135.293 52.7126 135.407C53.1518 135.522 53.5501 135.757 53.8624 136.087C54.1747 136.416 54.3884 136.826 54.4793 137.271C54.5703 137.716 54.5348 138.177 54.3769 138.603L51.8083 145.54C51.6713 145.909 51.6262 146.307 51.677 146.697C51.7278 147.088 51.8729 147.461 52.0998 147.783L56.3625 153.833C56.6239 154.203 56.7764 154.64 56.8027 155.092C56.829 155.545 56.7281 155.996 56.5113 156.394C56.2946 156.793 55.9707 157.122 55.5764 157.346C55.182 157.57 54.7328 157.679 54.2798 157.66L46.8866 157.365C46.4924 157.348 46.1003 157.428 45.7441 157.598C45.3878 157.767 45.0781 158.021 44.8418 158.336L40.4059 164.251C40.1334 164.61 39.7662 164.887 39.3454 165.049C38.9247 165.212 38.467 165.254 38.0236 165.171C37.5802 165.088 37.1686 164.884 36.835 164.58C36.5014 164.277 36.2589 163.886 36.1347 163.452L34.1195 156.313C34.0122 155.934 33.8147 155.586 33.544 155.3C33.2733 155.014 32.9373 154.797 32.5648 154.669L25.573 152.299C25.1434 152.153 24.7632 151.89 24.4755 151.539C24.1878 151.189 24.0041 150.764 23.9452 150.314C23.8862 149.865 23.9545 149.407 24.1421 148.994C24.3297 148.581 24.6293 148.229 25.0069 147.977L31.1622 143.871C31.4905 143.653 31.7606 143.358 31.9491 143.012C32.1375 142.666 32.2387 142.279 32.2438 141.885L32.3325 134.488C32.3373 134.033 32.47 133.588 32.7155 133.204C32.9609 132.821 33.3091 132.514 33.7205 132.319C34.1319 132.124 34.5898 132.048 35.0421 132.101C35.4943 132.153 35.9227 132.332 36.2783 132.616Z" fill="#FFD550"/>
<path d="M74.0847 88.2106L15.3319 102.946C14.7919 103.084 14.2296 103.112 13.6787 103.027C13.1279 102.942 12.5998 102.747 12.1263 102.453C11.6528 102.159 11.2436 101.772 10.9233 101.316C10.6029 100.86 10.3781 100.344 10.2622 99.799L0.739769 55.2411C0.620468 54.6856 0.616768 54.1116 0.728898 53.5546C0.841027 52.9976 1.06659 52.4697 1.39154 52.0037C1.71649 51.5377 2.13389 51.1435 2.61774 50.8457C3.1016 50.548 3.64156 50.353 4.20402 50.2729L64.275 41.7052C65.3151 41.5533 66.3741 41.8027 67.2371 42.4029C68.1002 43.0031 68.7026 43.9091 68.9221 44.9371L77.1138 83.3269C77.3392 84.3747 77.1495 85.4691 76.5846 86.3799C76.0197 87.2907 75.1236 87.947 74.0847 88.2106Z" fill="#BEDDFA"/>
<path d="M77.1557 83.5086C77.1557 83.4494 77.1557 83.3903 77.1261 83.3269L77.0712 83.1579C77.0163 83.1579 71.7861 84.7506 63.6662 76.2548C54.5578 66.7323 46.9534 67.5096 41.3472 69.2502C39.783 69.7732 38.3093 70.5357 36.9788 71.5104C35.2911 69.6791 33.1068 68.3785 30.6925 67.7673C26.7931 66.6985 20.5786 68.2405 12.2179 72.3554C9.58169 73.6481 7.14827 75.0085 5.20068 76.1576L5.28518 76.5336C11.7743 72.7314 24.0597 66.3309 30.5953 68.1264C32.9287 68.7172 35.0414 69.9702 36.6789 71.7343C32.902 74.5184 29.3871 78.9924 28.5252 83.5635C27.8155 87.3235 29.0195 90.5723 32.0106 92.9634C32.7386 93.5953 33.6844 93.9181 34.6468 93.8633C34.968 93.836 35.2838 93.7635 35.5847 93.6478C38.1195 92.6804 39.9615 88.9711 40.4811 85.811C40.9429 82.7114 40.7076 79.5478 39.7925 76.5505C39.2533 74.8088 38.3778 73.1897 37.2154 71.785C38.504 70.8458 39.9287 70.1092 41.4401 69.6009C46.9322 67.8899 54.4142 67.1336 63.4085 76.5125C71.5031 84.9745 76.691 83.648 77.1557 83.5086ZM39.4587 76.6603C40.361 79.605 40.5933 82.7142 40.1389 85.7603C39.6446 88.7176 37.8238 92.3931 35.4664 93.3056C34.3764 93.7281 33.2949 93.5084 32.2514 92.6761C30.874 91.6556 29.8217 90.2578 29.2219 88.6518C28.6221 87.0458 28.5005 85.3005 28.8717 83.6269C29.7166 79.1276 33.1893 74.7254 36.8986 71.9963C38.0536 73.3652 38.924 74.9509 39.4587 76.6603Z" fill="white"/>
<path d="M177.78 197.035L126.927 188.805C125.005 188.494 123.273 187.465 122.082 185.925C120.89 184.385 120.328 182.45 120.51 180.512L123.826 145.024C124.185 141.222 127.51 138.806 131.333 138.637C139.28 138.29 148.334 138.007 159.145 138.987C169.55 139.934 177.391 141.129 183.424 142.156C190.517 143.36 193.115 147.399 192.596 152.933L189.305 188.116C189.178 189.477 188.773 190.797 188.115 191.995C187.457 193.192 186.56 194.242 185.479 195.078C184.398 195.915 183.157 196.52 181.833 196.856C180.508 197.193 179.129 197.253 177.78 197.035Z" fill="white"/>
<path d="M147.151 181.661L143.839 177.364L138.795 178.67C140.606 173.782 142.946 169.107 145.774 164.728L153.159 169.637C150.736 173.421 148.722 177.452 147.151 181.661ZM153.159 169.637L149.466 167.174L153.159 169.633V169.637Z" fill="#F36563"/>
<path d="M157.612 182.295C155.922 175.573 155.398 167.952 155.377 167.631L164.249 167.048C164.249 167.12 164.735 174.2 166.23 180.123L161.161 178.26L157.612 182.295Z" fill="#F36563"/>
<path d="M145.777 164.716C145.706 164.817 144.996 165.89 143.999 167.618C145.733 170.144 148.279 172 151.215 172.878C152.296 170.943 153.107 169.709 153.158 169.637L149.466 167.179L145.777 164.716Z" fill="#0D0F44"/>
<path d="M164.231 167.048L155.359 167.631C155.359 167.808 155.537 170.229 155.968 173.499C159.107 173.396 162.118 172.228 164.506 170.187C164.316 168.324 164.231 167.077 164.231 167.048Z" fill="#0D0F44"/>
<path d="M168.854 159.483C169.141 152.602 163.37 146.773 155.966 146.466C148.562 146.158 142.328 151.487 142.042 158.369C141.756 165.251 147.527 171.079 154.931 171.387C162.334 171.695 168.568 166.365 168.854 159.483Z" fill="#F36563"/>
<path d="M156.775 153.355L157.679 155.992C157.728 156.131 157.811 156.257 157.919 156.358C158.027 156.46 158.157 156.534 158.3 156.575L160.987 157.318C161.151 157.364 161.299 157.456 161.415 157.582C161.53 157.708 161.608 157.863 161.639 158.031C161.671 158.199 161.655 158.372 161.593 158.531C161.532 158.69 161.427 158.829 161.291 158.932L159.065 160.622C158.946 160.711 158.851 160.827 158.788 160.961C158.725 161.095 158.695 161.243 158.701 161.391L158.824 164.175C158.831 164.346 158.79 164.515 158.706 164.664C158.622 164.812 158.498 164.935 158.349 165.017C158.199 165.099 158.029 165.138 157.859 165.129C157.688 165.119 157.523 165.063 157.383 164.965L155.102 163.364C154.98 163.279 154.84 163.225 154.692 163.206C154.545 163.188 154.396 163.206 154.257 163.258L151.646 164.23C151.486 164.289 151.313 164.302 151.146 164.268C150.979 164.234 150.825 164.155 150.701 164.038C150.576 163.921 150.487 163.772 150.443 163.607C150.399 163.443 150.401 163.269 150.45 163.106L151.266 160.444C151.311 160.302 151.321 160.15 151.293 160.002C151.266 159.855 151.203 159.717 151.11 159.6L149.356 157.398C149.251 157.265 149.185 157.104 149.166 156.935C149.147 156.765 149.176 156.594 149.248 156.44C149.321 156.286 149.436 156.156 149.578 156.063C149.721 155.97 149.887 155.919 150.058 155.916L152.846 155.865C152.995 155.861 153.141 155.82 153.27 155.747C153.4 155.673 153.51 155.568 153.589 155.442L155.131 153.119C155.226 152.972 155.361 152.855 155.52 152.782C155.679 152.709 155.856 152.684 156.029 152.709C156.202 152.734 156.365 152.808 156.497 152.923C156.629 153.037 156.726 153.188 156.775 153.355Z" fill="#FFD550"/>
<path d="M132.931 141.56C132.931 141.56 127.16 140.952 126.657 146.013L126.133 151.083" stroke="#DADEEB" stroke-width="1.26741" stroke-miterlimit="10" stroke-linecap="round"/>
<path d="M176.876 144.196C176.876 144.196 183.635 144.733 187.505 147.386" stroke="#DADEEB" stroke-width="1.26741" stroke-miterlimit="10" stroke-linecap="round"/>
<path d="M181.464 161.708C181.464 161.708 182.837 155.514 189.948 157.808C197.058 160.102 199.618 164.817 199.593 167.039C199.593 168.07 200.269 187.14 194.578 188.716C192.144 189.392 181.904 188.649 179.859 179.819C177.814 170.989 181.464 161.708 181.464 161.708Z" fill="#F3ABAA"/>
<path d="M182.861 160.994C182.861 160.994 188.028 161.737 190.571 163.854" stroke="#F36563" stroke-width="0.844939" stroke-miterlimit="10" stroke-linecap="round"/>
<path d="M181.522 166.372C181.522 166.372 186.689 167.115 189.232 169.232" stroke="#F36563" stroke-width="0.844939" stroke-miterlimit="10" stroke-linecap="round"/>
<path d="M180.923 171.268C180.923 171.268 186.111 172.012 188.646 174.124" stroke="#F36563" stroke-width="0.844939" stroke-miterlimit="10" stroke-linecap="round"/>
<path d="M180.923 177.187C180.923 177.187 185.042 177.187 187.585 179.299" stroke="#F36563" stroke-width="0.844939" stroke-miterlimit="10" stroke-linecap="round"/>
<path d="M201.5 22C204.28 23.5884 215.5 31 216 44C216 46 215.5 50.7 211.5 51.5L207.5 53" stroke="white" stroke-linecap="round"/>
</svg>
