<svg width="17" height="20" viewBox="0 0 17 20" fill="none" xmlns="http://www.w3.org/2000/svg">
<g clip-path="url(#clip0_1_840)">
<path d="M14.04 19.1999C12.956 20.2519 11.76 20.0879 10.62 19.5919C9.40802 19.0859 8.30002 19.0539 7.02002 19.5919C5.42602 20.2799 4.58002 20.0799 3.62002 19.1999C-1.79998 13.62 -0.999985 5.11999 5.16002 4.79999C6.65402 4.87999 7.70002 5.62599 8.58002 5.68799C9.88802 5.42199 11.14 4.65999 12.54 4.75999C14.222 4.89599 15.48 5.55999 16.32 6.75398C12.86 8.83398 13.68 13.394 16.858 14.674C16.222 16.344 15.406 17.9939 14.038 19.2139L14.04 19.1999ZM8.46002 4.73999C8.29802 2.26 10.308 0.220004 12.62 0.0200043C12.938 2.88 10.02 5.01999 8.46002 4.73999Z" fill="black"/>
</g>
<defs>
<clipPath id="clip0_1_840">
<rect width="16.84" height="20" fill="white"/>
</clipPath>
</defs>
</svg>
